<svg xmlns="http://www.w3.org/2000/svg" xmlns:v="https://svgstorm.com"
viewBox = "0 0 379 379"
width="379"
height="379">
<g fill="None" fill-opacity="0.0" stroke="#FEFEFE" stroke-opacity="1.00" stroke-width="0.3"><path d="
M 0.00 379.00 
L 379.00 379.00
L 379.00 0.00
L 0.00 0.00
L 0.00 379.00
M 258.00 211.00 
C 263.98 219.21 261.30 236.69 249.90 239.90 C 238.50 243.11 235.19 255.14 225.00 261.00
C 227.16 267.34 241.69 265.99 247.67 264.67 C 253.65 263.35 264.80 261.60 266.92 254.92 C 269.05 248.24 274.21 239.45 284.00 242.00
C 291.19 239.21 287.20 219.88 299.69 225.31 C 312.18 230.74 301.70 241.26 302.00 250.00
C 309.02 254.88 304.11 269.59 301.00 275.00
C 301.95 273.93 303.17 273.08 304.00 272.00
C 303.89 283.44 289.31 283.38 282.23 289.23 C 275.16 295.08 271.05 305.60 263.70 309.70 C 256.34 313.79 248.28 316.77 239.26 322.26 C 230.23 327.74 219.80 330.31 208.98 332.98 C 198.16 335.65 180.85 333.81 169.78 333.22 C 158.70 332.63 146.08 325.71 137.00 328.00
C 132.21 323.49 122.67 317.14 115.75 312.25 C 108.83 307.36 102.33 302.72 97.30 295.70 C 92.26 288.69 84.78 285.80 75.00 285.00
C 73.02 276.84 63.46 271.80 65.94 261.92 C 68.41 252.04 70.72 242.90 66.00 233.00 C 61.29 223.09 64.74 209.57 64.21 199.77 C 63.68 189.97 69.73 183.06 69.00 174.00
C 74.52 169.75 76.06 161.07 76.00 155.00
C 72.45 156.78 71.70 156.01 68.00 155.00
C 71.06 143.04 69.44 129.39 73.31 118.31 C 77.17 107.22 82.97 99.42 84.00 89.00
C 93.88 86.70 98.02 75.81 106.77 69.77 C 115.52 63.73 121.49 60.23 133.01 58.01 C 144.53 55.78 157.32 52.65 170.00 53.00 C 182.68 53.35 194.56 55.87 207.07 57.93 C 219.59 59.99 229.60 59.91 241.10 62.90 C 252.59 65.89 267.93 65.00 279.10 61.10 C 290.26 57.19 297.97 57.60 307.25 47.25 C 316.54 36.90 325.38 52.59 322.07 64.08 C 318.77 75.56 320.25 85.42 315.61 95.75 C 310.96 106.08 308.00 116.61 303.00 126.00
C 294.81 127.25 295.91 141.96 288.08 146.08 C 280.24 150.19 276.31 159.03 268.75 163.75 C 261.18 168.47 251.64 174.86 243.00 176.00
C 240.77 188.19 249.09 202.74 258.00 211.00 Z"/>
</g>
<g fill="None" fill-opacity="0.0" stroke="#FCFDE7" stroke-opacity="1.00" stroke-width="0.3"><path d="
M 301.00 275.00 
C 297.80 280.57 292.17 284.03 285.00 284.00
C 284.05 284.00 282.94 283.86 282.00 284.00
C 275.27 284.98 271.31 297.26 265.25 301.25 C 259.19 305.25 252.25 311.97 246.00 316.00
C 234.32 326.18 213.83 332.00 198.00 332.00
C 189.05 332.00 179.94 332.48 171.00 332.00
C 164.96 331.67 159.29 329.47 153.78 328.22 C 148.26 326.98 143.03 326.18 137.78 324.22 C 132.52 322.26 128.12 319.07 123.75 316.25 C 119.39 313.42 114.73 310.23 111.25 306.75 C 107.76 303.27 101.24 301.36 99.75 296.25 C 98.25 291.15 90.09 288.25 89.00 285.00
C 87.69 285.72 85.17 284.42 84.00 286.00
C 71.58 278.92 59.06 260.17 73.00 248.00
C 72.18 245.42 71.59 242.68 71.00 240.00
C 52.59 193.08 83.81 130.63 130.00 114.00
C 163.08 102.09 204.01 89.77 238.00 107.00
C 220.93 109.43 201.84 107.37 185.00 112.00
C 155.24 120.91 119.72 129.15 102.00 158.00
C 111.26 163.51 122.58 167.00 133.00 171.00
C 130.14 197.46 103.11 172.92 90.00 174.00
C 82.61 195.79 79.20 220.72 87.00 243.00
C 97.04 234.90 102.62 249.43 105.00 255.00
C 107.03 258.38 108.79 259.02 112.00 261.00
C 108.32 257.62 106.49 253.12 103.68 246.32 C 100.87 239.53 91.79 239.48 87.00 237.00
C 80.82 216.65 83.23 194.36 92.00 176.00
C 103.97 176.40 115.58 189.28 129.00 185.00
C 129.11 186.00 128.53 187.73 130.00 188.00
C 133.40 180.55 137.12 173.00 143.30 167.30 C 149.49 161.60 156.09 156.76 164.07 154.07 C 172.05 151.39 186.42 147.83 195.00 150.00 C 203.58 152.17 213.37 153.62 219.70 159.31 C 226.02 164.99 234.33 167.40 236.75 174.25 C 239.18 181.09 246.51 192.25 246.00 200.00
C 245.97 200.50 246.00 201.00 246.00 201.00
C 249.45 204.53 254.57 207.06 258.00 211.00
C 249.09 202.74 240.77 188.19 243.00 176.00
C 251.64 174.86 261.18 168.47 268.75 163.75 C 276.31 159.03 280.24 150.19 288.08 146.08 C 295.91 141.96 294.81 127.25 303.00 126.00
C 308.00 116.61 310.96 106.08 315.61 95.75 C 320.25 85.42 318.77 75.56 322.07 64.08 C 325.38 52.59 316.54 36.90 307.25 47.25 C 297.97 57.60 290.26 57.19 279.10 61.10 C 267.93 65.00 252.59 65.89 241.10 62.90 C 229.60 59.91 219.59 59.99 207.07 57.93 C 194.56 55.87 182.68 53.35 170.00 53.00 C 157.32 52.65 144.53 55.78 133.01 58.01 C 121.49 60.23 115.52 63.73 106.77 69.77 C 98.02 75.81 93.88 86.70 84.00 89.00
C 82.97 99.42 77.17 107.22 73.31 118.31 C 69.44 129.39 71.06 143.04 68.00 155.00
C 71.70 156.01 72.45 156.78 76.00 155.00
C 76.06 161.07 74.52 169.75 69.00 174.00
C 69.73 183.06 63.68 189.97 64.21 199.77 C 64.74 209.57 61.29 223.09 66.00 233.00 C 70.72 242.90 68.41 252.04 65.94 261.92 C 63.46 271.80 73.02 276.84 75.00 285.00
C 84.78 285.80 92.26 288.69 97.30 295.70 C 102.33 302.72 108.83 307.36 115.75 312.25 C 122.67 317.14 132.21 323.49 137.00 328.00
C 146.08 325.71 158.70 332.63 169.78 333.22 C 180.85 333.81 198.16 335.65 208.98 332.98 C 219.80 330.31 230.23 327.74 239.26 322.26 C 248.28 316.77 256.34 313.79 263.70 309.70 C 271.05 305.60 275.16 295.08 282.23 289.23 C 289.31 283.38 303.89 283.44 304.00 272.00
C 303.17 273.08 301.95 273.93 301.00 275.00
M 298.00 125.00 
C 291.40 135.03 279.50 150.07 270.25 157.25 C 261.00 164.43 239.81 183.29 235.00 166.00
C 232.28 156.23 256.30 153.19 261.25 145.25 C 266.19 137.30 278.91 128.50 283.77 118.77 C 288.63 109.04 297.10 96.38 300.00 86.00
C 302.34 73.19 294.23 76.08 284.99 78.99 C 275.76 81.90 266.79 82.29 257.00 82.00 C 247.21 81.71 238.27 80.25 229.00 79.00 C 219.72 77.76 212.01 75.75 202.98 74.02 C 193.95 72.30 184.27 71.68 175.00 71.00 C 165.73 70.32 155.42 71.73 146.93 72.93 C 138.44 74.13 131.45 77.92 124.25 81.25 C 117.06 84.59 111.87 89.22 106.70 94.70 C 101.54 100.19 97.59 107.21 94.22 113.22 C 90.86 119.24 89.41 131.45 86.25 136.25 C 83.08 141.04 75.37 153.66 73.00 150.00
C 68.29 142.71 74.69 128.37 75.00 120.00 C 75.30 111.62 82.76 104.57 85.75 96.75 C 88.75 88.94 94.56 84.04 100.75 77.75 C 106.95 71.47 113.62 67.63 121.69 63.69 C 129.77 59.76 138.36 57.01 148.01 56.01 C 157.66 55.01 170.83 54.63 181.00 55.00 C 191.17 55.38 201.30 58.48 211.01 59.99 C 220.72 61.51 230.79 63.34 240.22 64.78 C 249.65 66.22 264.06 66.27 273.00 66.00 C 281.94 65.73 291.52 59.94 298.23 57.23 C 304.94 54.51 312.58 39.65 319.23 46.77 C 325.87 53.89 319.07 68.68 319.01 77.01 C 318.95 85.34 312.84 94.84 311.08 103.08 C 309.32 111.31 303.33 118.64 298.00 125.00
M 299.00 78.00 
C 294.87 97.94 284.74 115.29 273.22 130.22 C 261.71 145.16 241.63 150.98 231.00 166.00
C 217.91 154.95 197.05 145.19 178.99 148.99 C 160.93 152.79 145.65 158.13 136.00 175.00
C 131.60 162.02 112.20 165.76 104.00 156.00
C 106.49 152.33 111.33 149.18 116.00 148.00
C 119.44 138.28 129.68 133.14 139.08 129.08 C 148.48 125.02 158.35 122.04 169.01 118.01 C 179.67 113.98 194.46 114.60 206.01 112.01 C 217.56 109.41 232.41 112.67 242.00 109.00
C 240.06 107.01 240.66 105.50 240.00 103.00
C 231.48 101.18 223.95 98.58 215.00 98.00 C 206.05 97.42 196.51 97.02 187.98 96.98 C 179.44 96.93 168.64 99.26 160.99 100.99 C 153.34 102.72 146.26 103.15 138.99 106.99 C 131.72 110.84 124.97 111.72 118.75 116.75 C 112.54 121.79 107.79 125.24 100.97 129.97 C 94.16 134.70 94.92 140.58 87.25 146.25 C 79.57 151.91 84.17 142.01 89.75 136.75 C 95.33 131.50 92.01 119.00 96.92 112.92 C 101.84 106.85 102.90 100.21 108.75 94.75 C 114.60 89.29 118.45 85.24 126.23 82.23 C 134.00 79.22 140.55 75.25 149.02 74.02 C 157.49 72.80 168.12 70.96 177.00 72.00 C 185.88 73.04 194.42 74.48 203.00 76.00 C 211.58 77.51 218.88 80.81 227.22 82.78 C 235.57 84.74 243.96 82.50 251.74 85.60 C 259.52 88.69 265.75 84.58 274.07 84.07 C 282.40 83.57 290.95 79.88 299.00 78.00 Z"/>
</g>
<g fill="None" fill-opacity="0.0" stroke="#FAFDCF" stroke-opacity="1.00" stroke-width="0.3"><path d="
M 73.00 150.00 
C 71.90 147.20 73.70 143.09 74.00 141.00
C 73.12 128.48 78.98 115.30 83.00 104.00
C 85.83 96.03 90.51 90.07 96.75 83.75 C 103.00 77.43 108.24 72.33 116.22 68.22 C 124.21 64.12 132.30 60.55 141.67 58.67 C 151.04 56.80 162.56 55.48 173.00 56.00 C 183.44 56.52 194.31 57.24 204.22 59.78 C 214.13 62.31 224.05 62.64 234.01 64.99 C 243.97 67.35 254.66 66.70 265.00 68.00 C 275.34 69.30 283.50 62.24 292.69 60.69 C 301.89 59.15 305.70 48.46 314.03 47.03 C 322.35 45.59 318.49 67.71 317.67 74.67 C 316.85 81.63 312.14 94.43 310.02 102.02 C 307.91 109.62 302.45 118.24 298.00 125.00
C 303.33 118.64 309.32 111.31 311.08 103.08 C 312.84 94.84 318.95 85.34 319.01 77.01 C 319.07 68.68 325.87 53.89 319.23 46.77 C 312.58 39.65 304.94 54.51 298.23 57.23 C 291.52 59.94 281.94 65.73 273.00 66.00 C 264.06 66.27 249.65 66.22 240.22 64.78 C 230.79 63.34 220.72 61.51 211.01 59.99 C 201.30 58.48 191.17 55.38 181.00 55.00 C 170.83 54.63 157.66 55.01 148.01 56.01 C 138.36 57.01 129.77 59.76 121.69 63.69 C 113.62 67.63 106.95 71.47 100.75 77.75 C 94.56 84.04 88.75 88.94 85.75 96.75 C 82.76 104.57 75.30 111.62 75.00 120.00 C 74.69 128.37 68.29 142.71 73.00 150.00 Z"/>
</g>
<g fill="None" fill-opacity="0.0" stroke="#E0E799" stroke-opacity="1.00" stroke-width="0.3"><path d="
M 83.00 104.00 
C 89.47 90.47 100.47 81.47 113.25 72.25 C 126.02 63.02 144.76 58.31 162.00 58.00 C 179.24 57.69 201.00 59.76 218.00 64.00 C 235.00 68.24 257.28 69.79 275.07 68.07 C 292.87 66.35 303.48 55.54 318.00 48.00
C 317.64 58.70 317.82 72.15 315.00 82.00 C 312.19 91.85 309.36 100.10 305.08 109.08 C 300.79 118.05 296.89 123.82 291.23 132.23 C 285.57 140.64 281.17 143.73 273.75 151.75 C 266.33 159.77 261.64 159.75 251.93 166.93 C 242.22 174.10 234.01 164.90 245.08 159.08 C 256.14 153.26 258.70 150.77 266.75 143.75 C 274.80 136.74 277.60 131.84 284.25 124.25 C 290.89 116.65 291.98 110.62 296.31 101.31 C 300.63 91.99 304.46 81.89 304.00 71.00
C 283.38 80.37 257.75 83.98 235.00 79.00 C 212.25 74.03 186.46 68.84 163.00 69.00 C 139.54 69.16 122.15 77.25 105.75 92.75 C 89.36 108.26 92.56 130.88 77.00 146.00
C 76.04 147.34 75.87 150.23 74.00 151.00
C 74.00 148.33 74.00 145.67 74.00 143.00
C 74.00 142.50 74.03 141.50 74.00 141.00
C 73.70 143.09 71.90 147.20 73.00 150.00
C 75.37 153.66 83.08 141.04 86.25 136.25 C 89.41 131.45 90.86 119.24 94.22 113.22 C 97.59 107.21 101.54 100.19 106.70 94.70 C 111.87 89.22 117.06 84.59 124.25 81.25 C 131.45 77.92 138.44 74.13 146.93 72.93 C 155.42 71.73 165.73 70.32 175.00 71.00 C 184.27 71.68 193.95 72.30 202.98 74.02 C 212.01 75.75 219.72 77.76 229.00 79.00 C 238.27 80.25 247.21 81.71 257.00 82.00 C 266.79 82.29 275.76 81.90 284.99 78.99 C 294.23 76.08 302.34 73.19 300.00 86.00
C 298.36 94.97 291.60 102.60 289.23 111.23 C 286.86 119.86 280.17 126.16 275.08 133.08 C 270.00 140.01 260.78 144.78 256.23 150.23 C 251.68 155.69 234.94 158.81 235.00 166.00
C 239.81 183.29 261.00 164.43 270.25 157.25 C 279.50 150.07 291.40 135.03 298.00 125.00
C 302.45 118.24 307.91 109.62 310.02 102.02 C 312.14 94.43 316.85 81.63 317.67 74.67 C 318.49 67.71 322.35 45.59 314.03 47.03 C 305.70 48.46 301.89 59.15 292.69 60.69 C 283.50 62.24 275.34 69.30 265.00 68.00 C 254.66 66.70 243.97 67.35 234.01 64.99 C 224.05 62.64 214.13 62.31 204.22 59.78 C 194.31 57.24 183.44 56.52 173.00 56.00 C 162.56 55.48 151.04 56.80 141.67 58.67 C 132.30 60.55 124.21 64.12 116.22 68.22 C 108.24 72.33 103.00 77.43 96.75 83.75 C 90.51 90.07 85.83 96.03 83.00 104.00 Z"/>
</g>
<g fill="None" fill-opacity="0.0" stroke="#C1CF45" stroke-opacity="1.00" stroke-width="0.3"><path d="
M 83.00 104.00 
C 78.98 115.30 73.12 128.48 74.00 141.00
C 74.03 141.50 74.00 142.50 74.00 143.00
C 74.59 144.99 75.73 145.36 77.00 146.00
C 92.56 130.88 89.36 108.26 105.75 92.75 C 122.15 77.25 139.54 69.16 163.00 69.00 C 186.46 68.84 212.25 74.03 235.00 79.00 C 257.75 83.98 283.38 80.37 304.00 71.00
C 304.46 81.89 300.63 91.99 296.31 101.31 C 291.98 110.62 290.89 116.65 284.25 124.25 C 277.60 131.84 274.80 136.74 266.75 143.75 C 258.70 150.77 256.14 153.26 245.08 159.08 C 234.01 164.90 242.22 174.10 251.93 166.93 C 261.64 159.75 266.33 159.77 273.75 151.75 C 281.17 143.73 285.57 140.64 291.23 132.23 C 296.89 123.82 300.79 118.05 305.08 109.08 C 309.36 100.10 312.19 91.85 315.00 82.00 C 317.82 72.15 317.64 58.70 318.00 48.00
C 303.48 55.54 292.87 66.35 275.07 68.07 C 257.28 69.79 235.00 68.24 218.00 64.00 C 201.00 59.76 179.24 57.69 162.00 58.00 C 144.76 58.31 126.02 63.02 113.25 72.25 C 100.47 81.47 89.47 90.47 83.00 104.00 Z"/>
</g>
<g fill="None" fill-opacity="0.0" stroke="#FEFEFD" stroke-opacity="1.00" stroke-width="0.3"><path d="
M 299.00 78.00 
C 290.95 79.88 282.40 83.57 274.07 84.07 C 265.75 84.58 259.52 88.69 251.74 85.60 C 243.96 82.50 235.57 84.74 227.22 82.78 C 218.88 80.81 211.58 77.51 203.00 76.00 C 194.42 74.48 185.88 73.04 177.00 72.00 C 168.12 70.96 157.49 72.80 149.02 74.02 C 140.55 75.25 134.00 79.22 126.23 82.23 C 118.45 85.24 114.60 89.29 108.75 94.75 C 102.90 100.21 101.84 106.85 96.92 112.92 C 92.01 119.00 95.33 131.50 89.75 136.75 C 84.17 142.01 79.57 151.91 87.25 146.25 C 94.92 140.58 94.16 134.70 100.97 129.97 C 107.79 125.24 112.54 121.79 118.75 116.75 C 124.97 111.72 131.72 110.84 138.99 106.99 C 146.26 103.15 153.34 102.72 160.99 100.99 C 168.64 99.26 179.44 96.93 187.98 96.98 C 196.51 97.02 206.05 97.42 215.00 98.00 C 223.95 98.58 231.48 101.18 240.00 103.00
C 240.66 105.50 240.06 107.01 242.00 109.00
C 232.41 112.67 217.56 109.41 206.01 112.01 C 194.46 114.60 179.67 113.98 169.01 118.01 C 158.35 122.04 148.48 125.02 139.08 129.08 C 129.68 133.14 119.44 138.28 116.00 148.00
C 111.33 149.18 106.49 152.33 104.00 156.00
C 112.20 165.76 131.60 162.02 136.00 175.00
C 145.65 158.13 160.93 152.79 178.99 148.99 C 197.05 145.19 217.91 154.95 231.00 166.00
C 241.63 150.98 261.71 145.16 273.22 130.22 C 284.74 115.29 294.87 97.94 299.00 78.00 Z"/>
</g>
<g fill="None" fill-opacity="0.0" stroke="#F8FACA" stroke-opacity="1.00" stroke-width="0.3"><path d="
M 235.00 166.00 
C 234.94 158.81 251.68 155.69 256.23 150.23 C 260.78 144.78 270.00 140.01 275.08 133.08 C 280.17 126.16 286.86 119.86 289.23 111.23 C 291.60 102.60 298.36 94.97 300.00 86.00
C 297.10 96.38 288.63 109.04 283.77 118.77 C 278.91 128.50 266.19 137.30 261.25 145.25 C 256.30 153.19 232.28 156.23 235.00 166.00 Z"/>
</g>
<g fill="None" fill-opacity="0.0" stroke="#E2E7A1" stroke-opacity="1.00" stroke-width="0.3"><path d="
M 130.00 114.00 
C 101.25 128.22 74.97 158.08 70.00 190.00
C 86.64 124.83 159.67 89.30 224.00 105.00
C 209.79 109.37 191.84 105.95 178.00 112.00
C 180.28 112.00 182.73 112.26 185.00 112.00
C 201.84 107.37 220.93 109.43 238.00 107.00
C 204.01 89.77 163.08 102.09 130.00 114.00 Z"/>
</g>
<g fill="None" fill-opacity="0.0" stroke="#B9C849" stroke-opacity="1.00" stroke-width="0.3"><path d="
M 70.00 190.00 
C 67.41 206.65 67.37 223.62 71.00 240.00
C 71.59 242.68 72.18 245.42 73.00 248.00
C 73.16 247.77 74.00 248.00 74.00 248.00
C 75.84 246.95 77.38 246.00 80.00 247.00 C 82.62 248.01 83.02 244.70 84.00 244.00
C 86.10 236.38 78.89 227.39 80.00 219.00 C 81.11 210.61 79.46 200.21 82.33 192.33 C 85.20 184.44 85.78 177.32 90.00 170.00
C 98.68 172.12 104.98 175.58 113.23 179.77 C 121.48 183.96 130.51 183.41 132.00 172.00
C 120.56 169.77 110.82 163.22 100.00 159.00
C 96.35 154.41 108.48 146.57 112.25 142.25 C 116.02 137.93 123.95 131.42 130.08 129.08 C 136.22 126.74 144.05 120.68 151.08 119.08 C 158.10 117.47 168.61 111.29 176.00 112.00
C 176.50 112.05 177.50 112.00 178.00 112.00
C 191.84 105.95 209.79 109.37 224.00 105.00
C 159.67 89.30 86.64 124.83 70.00 190.00 Z"/>
</g>
<g fill="None" fill-opacity="0.0" stroke="#DDE496" stroke-opacity="1.00" stroke-width="0.3"><path d="
M 100.00 159.00 
C 97.30 153.48 109.87 147.04 113.25 142.25 C 116.62 137.46 125.91 132.77 131.75 129.75 C 137.58 126.72 146.14 122.16 153.08 120.08 C 160.01 117.99 169.27 114.33 176.00 112.00
C 168.61 111.29 158.10 117.47 151.08 119.08 C 144.05 120.68 136.22 126.74 130.08 129.08 C 123.95 131.42 116.02 137.93 112.25 142.25 C 108.48 146.57 96.35 154.41 100.00 159.00 Z"/>
</g>
<g fill="None" fill-opacity="0.0" stroke="#F4F9C6" stroke-opacity="1.00" stroke-width="0.3"><path d="
M 100.00 159.00 
C 110.82 163.22 120.56 169.77 132.00 172.00
C 130.51 183.41 121.48 183.96 113.23 179.77 C 104.98 175.58 98.68 172.12 90.00 170.00
C 85.78 177.32 85.20 184.44 82.33 192.33 C 79.46 200.21 81.11 210.61 80.00 219.00 C 78.89 227.39 86.10 236.38 84.00 244.00
C 84.57 243.59 86.53 244.50 87.00 244.00
C 87.25 243.73 87.00 243.00 87.00 243.00
C 79.20 220.72 82.61 195.79 90.00 174.00
C 103.11 172.92 130.14 197.46 133.00 171.00
C 122.58 167.00 111.26 163.51 102.00 158.00
C 119.72 129.15 155.24 120.91 185.00 112.00
C 182.73 112.26 180.28 112.00 178.00 112.00
C 177.50 112.00 176.50 112.05 176.00 112.00
C 169.27 114.33 160.01 117.99 153.08 120.08 C 146.14 122.16 137.58 126.72 131.75 129.75 C 125.91 132.77 116.62 137.46 113.25 142.25 C 109.87 147.04 97.30 153.48 100.00 159.00 Z"/>
</g>
<g fill="None" fill-opacity="0.0" stroke="#F8FCCD" stroke-opacity="1.00" stroke-width="0.3"><path d="
M 71.00 240.00 
C 67.37 223.62 67.41 206.65 70.00 190.00
C 74.97 158.08 101.25 128.22 130.00 114.00
C 83.81 130.63 52.59 193.08 71.00 240.00 Z"/>
</g>
<g fill="None" fill-opacity="0.0" stroke="#A5B168" stroke-opacity="1.00" stroke-width="0.3"><path d="
M 77.00 146.00 
C 75.73 145.36 74.59 144.99 74.00 143.00
C 74.00 145.67 74.00 148.33 74.00 151.00
C 75.87 150.23 76.04 147.34 77.00 146.00 Z"/>
</g>
<g fill="None" fill-opacity="0.0" stroke="#F3D6C0" stroke-opacity="1.00" stroke-width="0.3"><path d="
M 130.00 188.00 
C 125.79 197.21 127.14 204.68 116.75 209.75 C 106.36 214.82 114.80 229.74 115.00 236.00
C 121.32 240.37 130.30 240.20 134.30 246.70 C 138.30 253.19 142.74 258.03 148.00 263.00
C 138.70 269.35 124.14 260.12 117.00 264.00
C 127.56 266.34 146.38 273.55 153.00 262.00
C 140.22 262.82 139.34 240.61 128.97 239.03 C 118.61 237.44 106.26 218.51 118.25 211.25 C 130.24 203.99 128.78 192.37 135.30 181.30 C 141.83 170.24 148.90 164.56 159.69 158.69 C 170.49 152.83 186.79 150.32 199.00 153.00 C 211.21 155.68 219.47 162.27 228.75 170.25 C 238.03 178.23 241.32 189.79 246.00 200.00
C 246.51 192.25 239.18 181.09 236.75 174.25 C 234.33 167.40 226.02 164.99 219.70 159.31 C 213.37 153.62 203.58 152.17 195.00 150.00 C 186.42 147.83 172.05 151.39 164.07 154.07 C 156.09 156.76 149.49 161.60 143.30 167.30 C 137.12 173.00 133.40 180.55 130.00 188.00 Z"/>
</g>
<g fill="None" fill-opacity="0.0" stroke="#E9A079" stroke-opacity="1.00" stroke-width="0.3"><path d="
M 117.00 264.00 
C 116.52 263.89 115.50 264.04 115.00 264.00
C 101.33 263.03 102.52 239.21 87.00 245.00
C 87.25 250.00 74.57 254.51 73.00 250.00
C 62.20 260.29 72.36 283.62 88.00 283.00
C 85.48 280.43 89.25 268.27 93.00 267.00
C 90.67 263.20 95.32 255.36 91.00 252.00
C 98.00 252.77 98.51 261.27 98.00 267.00
C 98.50 269.65 102.62 271.83 103.00 273.00
C 103.76 270.64 104.06 267.58 106.00 266.00
C 114.37 273.32 126.65 273.90 138.00 274.00 C 149.35 274.10 160.47 266.78 171.67 271.33 C 182.87 275.88 195.30 274.37 206.03 271.03 C 216.76 267.68 227.13 275.17 239.00 275.00 C 250.87 274.83 260.84 268.49 271.00 270.00
C 275.98 263.90 271.03 258.72 276.31 252.31 C 281.58 245.89 285.34 254.63 279.00 259.00
C 278.81 260.62 279.00 262.37 279.00 264.00
C 280.36 270.98 288.07 272.69 286.00 282.00
C 299.28 277.65 310.91 265.28 300.00 251.00
C 297.07 250.78 286.51 250.69 287.00 246.00
C 277.19 241.46 268.00 248.59 268.00 259.00
C 254.61 266.73 236.95 269.63 221.00 265.00
C 226.75 256.50 237.39 250.62 240.00 240.00
C 249.58 238.65 256.95 234.28 259.00 224.00 C 261.05 213.71 250.55 207.21 246.00 201.00
C 246.00 201.00 245.97 200.50 246.00 200.00
C 241.32 189.79 238.03 178.23 228.75 170.25 C 219.47 162.27 211.21 155.68 199.00 153.00 C 186.79 150.32 170.49 152.83 159.69 158.69 C 148.90 164.56 141.83 170.24 135.30 181.30 C 128.78 192.37 130.24 203.99 118.25 211.25 C 106.26 218.51 118.61 237.44 128.97 239.03 C 139.34 240.61 140.22 262.82 153.00 262.00
C 146.38 273.55 127.56 266.34 117.00 264.00
M 136.00 199.00 
C 137.51 192.05 139.70 185.56 143.75 179.75 C 147.81 173.94 151.85 169.91 158.23 166.23 C 164.61 162.55 170.48 159.74 178.22 158.22 C 185.97 156.71 195.70 158.83 203.07 160.93 C 210.45 163.03 215.13 165.69 220.77 171.23 C 226.41 176.77 229.12 178.85 233.33 186.67 C 237.53 194.50 236.54 200.33 226.00 199.00 C 215.46 197.67 209.61 198.56 201.00 196.00 C 192.38 193.44 189.50 189.95 181.77 187.23 C 174.04 184.51 174.01 177.67 166.75 174.25 C 159.49 170.83 158.39 185.72 153.90 188.90 C 149.40 192.08 141.94 198.25 136.00 199.00
M 250.00 215.00 
C 251.67 217.29 251.51 218.27 252.00 221.00
C 254.40 234.26 240.19 227.68 235.00 234.00
C 231.53 239.72 229.97 244.98 225.00 250.00
C 219.05 256.01 214.39 259.78 206.93 262.93 C 199.46 266.07 189.64 270.06 181.00 268.00 C 172.36 265.94 164.66 264.54 157.92 259.08 C 151.18 253.62 145.48 253.26 142.08 243.92 C 138.68 234.58 134.26 233.41 124.77 230.23 C 115.28 227.05 121.39 213.61 128.22 211.22 C 135.06 208.83 140.77 202.90 149.08 201.08 C 157.39 199.25 159.05 188.38 164.00 184.00
C 173.79 186.46 178.64 195.29 188.69 198.31 C 198.75 201.32 209.58 205.68 221.01 204.99 C 232.43 204.30 243.20 207.00 250.00 215.00
M 82.00 255.00 
C 89.05 256.14 88.03 271.46 80.97 270.97 C 73.92 270.48 73.60 253.64 82.00 255.00
M 296.00 255.00 
C 301.73 257.87 296.40 274.56 289.31 269.69 C 282.21 264.83 287.44 250.71 296.00 255.00 Z"/>
</g>
<g fill="None" fill-opacity="0.0" stroke="#FDBC8C" stroke-opacity="1.00" stroke-width="0.3"><path d="
M 136.00 199.00 
C 141.94 198.25 149.40 192.08 153.90 188.90 C 158.39 185.72 159.49 170.83 166.75 174.25 C 174.01 177.67 174.04 184.51 181.77 187.23 C 189.50 189.95 192.38 193.44 201.00 196.00 C 209.61 198.56 215.46 197.67 226.00 199.00 C 236.54 200.33 237.53 194.50 233.33 186.67 C 229.12 178.85 226.41 176.77 220.77 171.23 C 215.13 165.69 210.45 163.03 203.07 160.93 C 195.70 158.83 185.97 156.71 178.22 158.22 C 170.48 159.74 164.61 162.55 158.23 166.23 C 151.85 169.91 147.81 173.94 143.75 179.75 C 139.70 185.56 137.51 192.05 136.00 199.00 Z"/>
</g>
<g fill="None" fill-opacity="0.0" stroke="#FEFDFB" stroke-opacity="1.00" stroke-width="0.3"><path d="
M 112.00 261.00 
C 113.30 261.80 114.13 263.37 115.00 264.00
C 115.50 264.04 116.52 263.89 117.00 264.00
C 124.14 260.12 138.70 269.35 148.00 263.00
C 142.74 258.03 138.30 253.19 134.30 246.70 C 130.30 240.20 121.32 240.37 115.00 236.00
C 114.80 229.74 106.36 214.82 116.75 209.75 C 127.14 204.68 125.79 197.21 130.00 188.00
C 128.53 187.73 129.11 186.00 129.00 185.00
C 115.58 189.28 103.97 176.40 92.00 176.00
C 83.23 194.36 80.82 216.65 87.00 237.00
C 91.79 239.48 100.87 239.53 103.68 246.32 C 106.49 253.12 108.32 257.62 112.00 261.00 Z"/>
</g>
<g fill="None" fill-opacity="0.0" stroke="#E9C1A7" stroke-opacity="1.00" stroke-width="0.3"><path d="
M 225.00 250.00 
C 218.16 255.91 212.29 260.00 204.71 263.71 C 197.12 267.41 183.21 268.19 174.99 266.01 C 166.77 263.82 159.85 258.46 152.77 254.23 C 145.69 250.00 142.09 239.95 138.23 234.77 C 134.37 229.59 116.97 228.51 121.78 218.78 C 126.58 209.04 134.59 210.17 142.07 205.07 C 149.56 199.98 157.47 200.48 161.75 190.75 C 166.04 181.03 172.75 190.51 180.08 194.92 C 187.40 199.34 195.26 203.08 204.68 204.32 C 214.10 205.57 227.77 206.53 238.00 206.00
C 238.13 212.93 245.30 212.32 250.00 215.00
C 243.20 207.00 232.43 204.30 221.01 204.99 C 209.58 205.68 198.75 201.32 188.69 198.31 C 178.64 195.29 173.79 186.46 164.00 184.00
C 159.05 188.38 157.39 199.25 149.08 201.08 C 140.77 202.90 135.06 208.83 128.22 211.22 C 121.39 213.61 115.28 227.05 124.77 230.23 C 134.26 233.41 138.68 234.58 142.08 243.92 C 145.48 253.26 151.18 253.62 157.92 259.08 C 164.66 264.54 172.36 265.94 181.00 268.00 C 189.64 270.06 199.46 266.07 206.93 262.93 C 214.39 259.78 219.05 256.01 225.00 250.00 Z"/>
</g>
<g fill="None" fill-opacity="0.0" stroke="#FDEDDB" stroke-opacity="1.00" stroke-width="0.3"><path d="
M 225.00 250.00 
C 229.97 244.98 231.53 239.72 235.00 234.00
C 239.32 226.87 252.27 233.95 252.00 221.00
C 251.51 218.27 251.67 217.29 250.00 215.00
C 245.30 212.32 238.13 212.93 238.00 206.00
C 227.77 206.53 214.10 205.57 204.68 204.32 C 195.26 203.08 187.40 199.34 180.08 194.92 C 172.75 190.51 166.04 181.03 161.75 190.75 C 157.47 200.48 149.56 199.98 142.07 205.07 C 134.59 210.17 126.58 209.04 121.78 218.78 C 116.97 228.51 134.37 229.59 138.23 234.77 C 142.09 239.95 145.69 250.00 152.77 254.23 C 159.85 258.46 166.77 263.82 174.99 266.01 C 183.21 268.19 197.12 267.41 204.71 263.71 C 212.29 260.00 218.16 255.91 225.00 250.00
M 168.00 188.00 
C 173.62 189.07 176.42 198.19 182.68 199.32 C 188.94 200.45 195.96 204.42 203.02 204.98 C 210.08 205.54 218.01 209.90 226.00 208.00 C 233.99 206.10 239.63 212.52 246.23 214.77 C 252.83 217.02 251.59 231.48 242.98 229.98 C 234.36 228.47 231.56 235.85 229.02 242.02 C 226.49 248.20 220.56 251.13 215.97 254.97 C 211.38 258.81 205.29 260.88 198.78 262.78 C 192.27 264.67 184.39 266.18 177.99 264.01 C 171.59 261.84 165.59 260.29 160.11 257.89 C 154.62 255.50 150.40 249.25 146.25 245.75 C 142.10 242.26 142.00 229.53 135.92 229.08 C 129.84 228.64 120.24 225.46 123.78 218.78 C 127.32 212.10 133.61 211.73 137.70 208.70 C 141.80 205.68 151.09 202.60 155.23 200.23 C 159.37 197.86 162.69 186.99 168.00 188.00 Z"/>
</g>
<g fill="None" fill-opacity="0.0" stroke="#FDFDFA" stroke-opacity="1.00" stroke-width="0.3"><path d="
M 168.00 188.00 
C 162.69 186.99 159.37 197.86 155.23 200.23 C 151.09 202.60 141.80 205.68 137.70 208.70 C 133.61 211.73 127.32 212.10 123.78 218.78 C 120.24 225.46 129.84 228.64 135.92 229.08 C 142.00 229.53 142.10 242.26 146.25 245.75 C 150.40 249.25 154.62 255.50 160.11 257.89 C 165.59 260.29 171.59 261.84 177.99 264.01 C 184.39 266.18 192.27 264.67 198.78 262.78 C 205.29 260.88 211.38 258.81 215.97 254.97 C 220.56 251.13 226.49 248.20 229.02 242.02 C 231.56 235.85 234.36 228.47 242.98 229.98 C 251.59 231.48 252.83 217.02 246.23 214.77 C 239.63 212.52 233.99 206.10 226.00 208.00 C 218.01 209.90 210.08 205.54 203.02 204.98 C 195.96 204.42 188.94 200.45 182.68 199.32 C 176.42 198.19 173.62 189.07 168.00 188.00
M 158.00 229.00 
C 147.01 228.51 151.37 215.49 158.70 213.70 C 166.03 211.90 176.66 214.48 175.06 224.08 C 173.47 233.68 160.96 220.32 158.00 229.00
M 212.00 225.00 
C 206.29 229.70 195.37 228.78 198.98 219.98 C 202.58 211.17 211.04 213.02 218.08 216.92 C 225.12 220.81 217.03 236.09 212.00 225.00
M 175.00 239.00 
C 177.68 239.49 187.73 248.31 191.07 243.07 C 194.42 237.84 205.77 237.74 204.99 244.01 C 204.21 250.28 197.27 252.15 191.93 253.93 C 186.59 255.70 177.63 253.22 172.75 250.25 C 167.88 247.28 165.82 237.31 175.00 239.00 Z"/>
</g>
<g fill="None" fill-opacity="0.0" stroke="#F9E4D0" stroke-opacity="1.00" stroke-width="0.3"><path d="
M 287.00 246.00 
C 287.21 246.10 287.74 245.12 288.00 245.00
C 287.65 244.97 287.26 244.22 287.00 244.00
C 286.48 243.57 284.36 242.12 284.00 242.00
C 274.21 239.45 269.05 248.24 266.92 254.92 C 264.80 261.60 253.65 263.35 247.67 264.67 C 241.69 265.99 227.16 267.34 225.00 261.00
C 235.19 255.14 238.50 243.11 249.90 239.90 C 261.30 236.69 263.98 219.21 258.00 211.00
C 254.57 207.06 249.45 204.53 246.00 201.00
C 250.55 207.21 261.05 213.71 259.00 224.00 C 256.95 234.28 249.58 238.65 240.00 240.00
C 237.39 250.62 226.75 256.50 221.00 265.00
C 236.95 269.63 254.61 266.73 268.00 259.00
C 268.00 248.59 277.19 241.46 287.00 246.00 Z"/>
</g>
<g fill="None" fill-opacity="0.0" stroke="#FCEEDF" stroke-opacity="1.00" stroke-width="0.3"><path d="
M 158.00 229.00 
C 160.96 220.32 173.47 233.68 175.06 224.08 C 176.66 214.48 166.03 211.90 158.70 213.70 C 151.37 215.49 147.01 228.51 158.00 229.00
M 173.00 223.00 
C 173.01 223.50 173.00 224.00 173.00 224.00
C 173.11 232.49 159.85 217.75 159.00 227.00
C 153.08 229.42 150.36 219.51 155.00 218.00
C 155.49 217.93 156.00 218.00 156.00 218.00
C 160.52 212.11 172.84 215.07 173.00 223.00 Z"/>
</g>
<g fill="None" fill-opacity="0.0" stroke="#FCEADA" stroke-opacity="1.00" stroke-width="0.3"><path d="
M 212.00 225.00 
C 217.03 236.09 225.12 220.81 218.08 216.92 C 211.04 213.02 202.58 211.17 198.98 219.98 C 195.37 228.78 206.29 229.70 212.00 225.00
M 216.00 218.00 
C 216.47 218.11 217.00 218.00 217.00 218.00
C 220.06 218.36 221.29 223.55 219.22 226.22 C 217.15 228.89 214.30 227.80 212.25 224.75 C 210.19 221.70 205.81 226.96 204.00 227.00
C 200.41 227.08 199.85 225.32 200.00 222.00
C 200.31 215.00 212.38 212.21 216.00 218.00 Z"/>
</g>
<g fill="None" fill-opacity="0.0" stroke="#E7C4AC" stroke-opacity="1.00" stroke-width="0.3"><path d="
M 156.00 218.00 
C 161.28 216.76 165.69 215.14 171.00 218.00
C 170.86 219.81 171.44 222.08 173.00 223.00
C 172.84 215.07 160.52 212.11 156.00 218.00 Z"/>
</g>
<g fill="None" fill-opacity="0.0" stroke="#EAC5AD" stroke-opacity="1.00" stroke-width="0.3"><path d="
M 200.00 222.00 
C 201.12 214.44 211.46 216.93 216.00 218.00
C 212.38 212.21 200.31 215.00 200.00 222.00 Z"/>
</g>
<g fill="None" fill-opacity="0.0" stroke="#DD9B7C" stroke-opacity="1.00" stroke-width="0.3"><path d="
M 156.00 218.00 
C 156.00 218.00 155.49 217.93 155.00 218.00
C 153.80 221.43 154.81 223.78 158.00 225.00
C 162.91 218.24 169.09 229.74 173.00 224.00
C 173.00 224.00 173.01 223.50 173.00 223.00
C 171.44 222.08 170.86 219.81 171.00 218.00
C 165.69 215.14 161.28 216.76 156.00 218.00 Z"/>
</g>
<g fill="None" fill-opacity="0.0" stroke="#DB9B7B" stroke-opacity="1.00" stroke-width="0.3"><path d="
M 200.00 222.00 
C 199.85 225.32 200.41 227.08 204.00 227.00
C 208.41 226.45 208.62 219.98 214.25 225.75 C 219.87 231.52 217.85 220.26 217.00 218.00
C 217.00 218.00 216.47 218.11 216.00 218.00
C 211.46 216.93 201.12 214.44 200.00 222.00 Z"/>
</g>
<g fill="None" fill-opacity="0.0" stroke="#D7B59F" stroke-opacity="1.00" stroke-width="0.3"><path d="
M 173.00 224.00 
C 169.09 229.74 162.91 218.24 158.00 225.00
C 154.81 223.78 153.80 221.43 155.00 218.00
C 150.36 219.51 153.08 229.42 159.00 227.00
C 159.85 217.75 173.11 232.49 173.00 224.00 Z"/>
</g>
<g fill="None" fill-opacity="0.0" stroke="#EBC5AF" stroke-opacity="1.00" stroke-width="0.3"><path d="
M 204.00 227.00 
C 205.81 226.96 210.19 221.70 212.25 224.75 C 214.30 227.80 217.15 228.89 219.22 226.22 C 221.29 223.55 220.06 218.36 217.00 218.00
C 217.85 220.26 219.87 231.52 214.25 225.75 C 208.62 219.98 208.41 226.45 204.00 227.00 Z"/>
</g>
<g fill="None" fill-opacity="0.0" stroke="#EAC4AA" stroke-opacity="1.00" stroke-width="0.3"><path d="
M 235.00 234.00 
C 240.19 227.68 254.40 234.26 252.00 221.00
C 252.27 233.95 239.32 226.87 235.00 234.00 Z"/>
</g>
<g fill="None" fill-opacity="0.0" stroke="#FCFDE5" stroke-opacity="1.00" stroke-width="0.3"><path d="
M 284.00 242.00 
C 284.36 242.12 286.48 243.57 287.00 244.00
C 286.85 238.14 290.24 224.03 298.67 226.33 C 307.10 228.63 303.95 243.56 302.00 250.00
C 301.70 241.26 312.18 230.74 299.69 225.31 C 287.20 219.88 291.19 239.21 284.00 242.00 Z"/>
</g>
<g fill="None" fill-opacity="0.0" stroke="#F2F5BD" stroke-opacity="1.00" stroke-width="0.3"><path d="
M 287.00 244.00 
C 287.26 244.22 287.65 244.97 288.00 245.00
C 288.50 245.05 289.00 245.00 289.00 245.00
C 289.06 239.72 289.37 226.68 298.00 228.00 C 306.64 229.32 300.74 240.97 300.00 246.00
C 299.81 247.27 300.00 248.72 300.00 250.00
C 300.16 249.77 301.66 249.77 302.00 250.00
C 303.95 243.56 307.10 228.63 298.67 226.33 C 290.24 224.03 286.85 238.14 287.00 244.00 Z"/>
</g>
<g fill="None" fill-opacity="0.0" stroke="#BFCD4F" stroke-opacity="1.00" stroke-width="0.3"><path d="
M 289.00 245.00 
C 292.07 245.57 297.08 248.29 300.00 246.00
C 300.74 240.97 306.64 229.32 298.00 228.00 C 289.37 226.68 289.06 239.72 289.00 245.00 Z"/>
</g>
<g fill="None" fill-opacity="0.0" stroke="#FCE9D9" stroke-opacity="1.00" stroke-width="0.3"><path d="
M 175.00 239.00 
C 165.82 237.31 167.88 247.28 172.75 250.25 C 177.63 253.22 186.59 255.70 191.93 253.93 C 197.27 252.15 204.21 250.28 204.99 244.01 C 205.77 237.74 194.42 237.84 191.07 243.07 C 187.73 248.31 177.68 239.49 175.00 239.00
M 203.00 245.00 
C 202.93 245.49 203.00 246.00 203.00 246.00
C 197.93 253.41 188.28 252.18 181.00 253.00 C 173.72 253.82 164.26 240.55 173.00 240.00
C 173.50 239.97 174.00 240.00 174.00 240.00
C 177.41 242.61 187.36 248.19 191.07 244.07 C 194.79 239.95 207.17 239.64 203.00 245.00 Z"/>
</g>
<g fill="None" fill-opacity="0.0" stroke="#E7C0A8" stroke-opacity="1.00" stroke-width="0.3"><path d="
M 203.00 246.00 
C 197.27 249.29 188.25 252.32 182.00 252.00 C 175.75 251.68 165.80 242.65 173.00 240.00
C 164.26 240.55 173.72 253.82 181.00 253.00 C 188.28 252.18 197.93 253.41 203.00 246.00 Z"/>
</g>
<g fill="None" fill-opacity="0.0" stroke="#DD9D7C" stroke-opacity="1.00" stroke-width="0.3"><path d="
M 203.00 246.00 
C 203.00 246.00 202.93 245.49 203.00 245.00
C 204.06 237.20 193.42 244.85 189.32 246.32 C 185.23 247.79 177.01 244.31 174.00 240.00
C 174.00 240.00 173.50 239.97 173.00 240.00
C 165.80 242.65 175.75 251.68 182.00 252.00 C 188.25 252.32 197.27 249.29 203.00 246.00 Z"/>
</g>
<g fill="None" fill-opacity="0.0" stroke="#E8BFA7" stroke-opacity="1.00" stroke-width="0.3"><path d="
M 203.00 245.00 
C 207.17 239.64 194.79 239.95 191.07 244.07 C 187.36 248.19 177.41 242.61 174.00 240.00
C 177.01 244.31 185.23 247.79 189.32 246.32 C 193.42 244.85 204.06 237.20 203.00 245.00 Z"/>
</g>
<g fill="None" fill-opacity="0.0" stroke="#FCEAD6" stroke-opacity="1.00" stroke-width="0.3"><path d="
M 87.00 243.00 
C 87.00 243.00 87.25 243.73 87.00 244.00
C 95.24 237.35 102.30 250.50 105.00 255.00
C 102.62 249.43 97.04 234.90 87.00 243.00 Z"/>
</g>
<g fill="None" fill-opacity="0.0" stroke="#E9C0A4" stroke-opacity="1.00" stroke-width="0.3"><path d="
M 87.00 244.00 
C 87.25 244.27 87.00 245.00 87.00 245.00
C 102.52 239.21 101.33 263.03 115.00 264.00
C 114.13 263.37 113.30 261.80 112.00 261.00
C 108.79 259.02 107.03 258.38 105.00 255.00
C 102.30 250.50 95.24 237.35 87.00 244.00 Z"/>
</g>
<g fill="None" fill-opacity="0.0" stroke="#DFAD61" stroke-opacity="1.00" stroke-width="0.3"><path d="
M 74.00 248.00 
C 74.88 248.83 73.31 249.71 73.00 250.00
C 74.57 254.51 87.25 250.00 87.00 245.00
C 87.00 245.00 87.25 244.27 87.00 244.00
C 86.53 244.50 84.57 243.59 84.00 244.00
C 83.02 244.70 82.62 248.01 80.00 247.00 C 77.38 246.00 75.84 246.95 74.00 248.00 Z"/>
</g>
<g fill="None" fill-opacity="0.0" stroke="#DFBE65" stroke-opacity="1.00" stroke-width="0.3"><path d="
M 287.00 246.00 
C 286.51 250.69 297.07 250.78 300.00 251.00
C 299.76 250.68 300.00 250.00 300.00 250.00
C 300.00 248.72 299.81 247.27 300.00 246.00
C 297.08 248.29 292.07 245.57 289.00 245.00
C 289.00 245.00 288.50 245.05 288.00 245.00
C 287.74 245.12 287.21 246.10 287.00 246.00 Z"/>
</g>
<g fill="None" fill-opacity="0.0" stroke="#F9E1CA" stroke-opacity="1.00" stroke-width="0.3"><path d="
M 89.00 285.00 
C 89.41 284.78 89.72 283.14 90.00 283.00
C 89.50 283.00 88.50 282.98 88.00 283.00
C 72.36 283.62 62.20 260.29 73.00 250.00
C 73.31 249.71 74.88 248.83 74.00 248.00
C 74.00 248.00 73.16 247.77 73.00 248.00
C 59.06 260.17 71.58 278.92 84.00 286.00
C 85.17 284.42 87.69 285.72 89.00 285.00 Z"/>
</g>
<g fill="None" fill-opacity="0.0" stroke="#FCBB8D" stroke-opacity="1.00" stroke-width="0.3"><path d="
M 103.00 273.00 
C 102.78 273.67 102.03 275.29 102.00 276.00
C 104.95 280.17 107.50 284.04 112.00 287.00
C 115.33 289.19 120.14 297.03 123.00 298.00
C 124.49 298.51 126.51 297.49 128.00 298.00
C 124.64 296.81 120.98 290.92 118.00 288.00
C 128.71 287.64 134.96 294.73 146.67 290.67 C 158.38 286.61 160.93 298.92 155.00 308.00
C 175.46 313.71 196.68 314.51 217.00 308.00
C 219.23 303.36 209.32 291.02 217.03 289.03 C 224.74 287.03 232.77 293.33 240.00 291.00 C 247.23 288.67 253.81 290.16 260.00 286.00
C 264.34 280.92 273.60 271.92 275.00 266.00
C 274.66 260.65 274.95 251.13 282.00 251.00
C 283.07 254.50 277.91 255.48 279.00 259.00
C 285.34 254.63 281.58 245.89 276.31 252.31 C 271.03 258.72 275.98 263.90 271.00 270.00
C 260.84 268.49 250.87 274.83 239.00 275.00 C 227.13 275.17 216.76 267.68 206.03 271.03 C 195.30 274.37 182.87 275.88 171.67 271.33 C 160.47 266.78 149.35 274.10 138.00 274.00 C 126.65 273.90 114.37 273.32 106.00 266.00
C 104.06 267.58 103.76 270.64 103.00 273.00 Z"/>
</g>
<g fill="None" fill-opacity="0.0" stroke="#ECCDB9" stroke-opacity="1.00" stroke-width="0.3"><path d="
M 300.00 251.00 
C 310.91 265.28 299.28 277.65 286.00 282.00
C 285.65 282.12 285.03 282.65 285.00 283.00
C 284.95 283.50 285.00 284.00 285.00 284.00
C 292.17 284.03 297.80 280.57 301.00 275.00
C 304.11 269.59 309.02 254.88 302.00 250.00
C 301.66 249.77 300.16 249.77 300.00 250.00
C 300.00 250.00 299.76 250.68 300.00 251.00 Z"/>
</g>
<g fill="None" fill-opacity="0.0" stroke="#FCE6C2" stroke-opacity="1.00" stroke-width="0.3"><path d="
M 275.00 266.00 
C 275.03 266.50 275.00 267.50 275.00 268.00
C 275.49 268.55 278.74 267.58 279.00 267.00
C 278.78 266.16 279.00 264.87 279.00 264.00
C 279.00 262.37 278.81 260.62 279.00 259.00
C 277.91 255.48 283.07 254.50 282.00 251.00
C 274.95 251.13 274.66 260.65 275.00 266.00 Z"/>
</g>
<g fill="None" fill-opacity="0.0" stroke="#FBE8C6" stroke-opacity="1.00" stroke-width="0.3"><path d="
M 93.00 267.00 
C 94.43 266.51 94.23 267.55 95.00 268.00
C 95.62 268.36 97.69 268.70 98.00 269.00
C 98.00 268.50 98.00 267.50 98.00 267.00
C 98.51 261.27 98.00 252.77 91.00 252.00
C 95.32 255.36 90.67 263.20 93.00 267.00 Z"/>
</g>
<g fill="None" fill-opacity="0.0" stroke="#FDF1E0" stroke-opacity="1.00" stroke-width="0.3"><path d="
M 82.00 255.00 
C 73.60 253.64 73.92 270.48 80.97 270.97 C 88.03 271.46 89.05 256.14 82.00 255.00 Z"/>
</g>
<g fill="None" fill-opacity="0.0" stroke="#FDF1E0" stroke-opacity="1.00" stroke-width="0.3"><path d="
M 296.00 255.00 
C 287.44 250.71 282.21 264.83 289.31 269.69 C 296.40 274.56 301.73 257.87 296.00 255.00 Z"/>
</g>
<g fill="None" fill-opacity="0.0" stroke="#DCAB60" stroke-opacity="1.00" stroke-width="0.3"><path d="
M 279.00 267.00 
C 279.76 269.90 282.84 271.31 283.92 274.08 C 284.99 276.85 281.89 282.67 285.00 283.00
C 285.03 282.65 285.65 282.12 286.00 282.00
C 288.07 272.69 280.36 270.98 279.00 264.00
C 279.00 264.87 278.78 266.16 279.00 267.00 Z"/>
</g>
<g fill="None" fill-opacity="0.0" stroke="#E8BC70" stroke-opacity="1.00" stroke-width="0.3"><path d="
M 260.00 286.00 
C 256.61 289.96 252.18 296.72 247.00 298.00
C 247.47 297.88 248.53 298.12 249.00 298.00
C 254.26 296.63 260.72 289.11 263.75 284.75 C 266.79 280.40 275.00 273.30 275.00 268.00
C 275.00 267.50 275.03 266.50 275.00 266.00
C 273.60 271.92 264.34 280.92 260.00 286.00 Z"/>
</g>
<g fill="None" fill-opacity="0.0" stroke="#D0AD58" stroke-opacity="1.00" stroke-width="0.3"><path d="
M 88.00 283.00 
C 88.50 282.98 89.50 283.00 90.00 283.00
C 90.50 283.00 91.00 283.00 91.00 283.00
C 90.78 280.06 89.98 277.33 90.33 274.33 C 90.68 271.33 95.82 270.97 95.00 268.00
C 94.23 267.55 94.43 266.51 93.00 267.00
C 89.25 268.27 85.48 280.43 88.00 283.00 Z"/>
</g>
<g fill="None" fill-opacity="0.0" stroke="#D9AD60" stroke-opacity="1.00" stroke-width="0.3"><path d="
M 98.00 269.00 
C 98.00 272.25 100.38 273.71 102.00 276.00
C 102.03 275.29 102.78 273.67 103.00 273.00
C 102.62 271.83 98.50 269.65 98.00 267.00
C 98.00 267.50 98.00 268.50 98.00 269.00 Z"/>
</g>
<g fill="None" fill-opacity="0.0" stroke="#D2BB57" stroke-opacity="1.00" stroke-width="0.3"><path d="
M 275.00 268.00 
C 275.00 273.30 266.79 280.40 263.75 284.75 C 260.72 289.11 254.26 296.63 249.00 298.00
C 248.48 298.48 248.34 299.44 248.00 300.00
C 251.51 297.12 256.52 296.21 260.08 293.08 C 263.64 289.95 264.46 284.97 268.92 281.92 C 273.37 278.87 271.57 274.35 277.25 271.25 C 282.92 268.15 281.19 283.58 282.00 284.00
C 282.94 283.86 284.05 284.00 285.00 284.00
C 285.00 284.00 284.95 283.50 285.00 283.00
C 281.89 282.67 284.99 276.85 283.92 274.08 C 282.84 271.31 279.76 269.90 279.00 267.00
C 278.74 267.58 275.49 268.55 275.00 268.00 Z"/>
</g>
<g fill="None" fill-opacity="0.0" stroke="#AFC049" stroke-opacity="1.00" stroke-width="0.3"><path d="
M 91.00 283.00 
C 99.47 290.09 104.51 300.65 114.75 307.25 C 125.00 313.84 135.40 320.28 147.00 324.00
C 171.30 331.79 192.88 330.67 218.00 327.00
C 227.65 325.59 237.80 321.29 246.00 316.00
C 252.25 311.97 259.19 305.25 265.25 301.25 C 271.31 297.26 275.27 284.98 282.00 284.00
C 281.19 283.58 282.92 268.15 277.25 271.25 C 271.57 274.35 273.37 278.87 268.92 281.92 C 264.46 284.97 263.64 289.95 260.08 293.08 C 256.52 296.21 251.51 297.12 248.00 300.00
C 242.35 309.29 230.34 309.68 220.93 314.93 C 211.51 320.17 196.57 320.27 185.00 321.00 C 173.43 321.73 160.64 317.69 150.25 313.75 C 139.87 309.80 131.91 304.30 123.00 298.00
C 118.53 294.84 115.49 290.93 112.00 287.00
C 107.50 284.04 104.95 280.17 102.00 276.00
C 100.38 273.71 98.00 272.25 98.00 269.00
C 97.69 268.70 95.62 268.36 95.00 268.00
C 95.82 270.97 90.68 271.33 90.33 274.33 C 89.98 277.33 90.78 280.06 91.00 283.00 Z"/>
</g>
<g fill="None" fill-opacity="0.0" stroke="#F2F8CB" stroke-opacity="1.00" stroke-width="0.3"><path d="
M 89.00 285.00 
C 90.09 288.25 98.25 291.15 99.75 296.25 C 101.24 301.36 107.76 303.27 111.25 306.75 C 114.73 310.23 119.39 313.42 123.75 316.25 C 128.12 319.07 132.52 322.26 137.78 324.22 C 143.03 326.18 148.26 326.98 153.78 328.22 C 159.29 329.47 164.96 331.67 171.00 332.00
C 162.96 330.85 154.36 327.29 147.00 324.00
C 135.40 320.28 125.00 313.84 114.75 307.25 C 104.51 300.65 99.47 290.09 91.00 283.00
C 91.00 283.00 90.50 283.00 90.00 283.00
C 89.72 283.14 89.41 284.78 89.00 285.00 Z"/>
</g>
<g fill="None" fill-opacity="0.0" stroke="#EDA177" stroke-opacity="1.00" stroke-width="0.3"><path d="
M 217.00 308.00 
C 222.69 306.18 225.91 305.15 223.00 298.00
C 231.00 298.00 239.00 298.00 247.00 298.00
C 252.18 296.72 256.61 289.96 260.00 286.00
C 253.81 290.16 247.23 288.67 240.00 291.00 C 232.77 293.33 224.74 287.03 217.03 289.03 C 209.32 291.02 219.23 303.36 217.00 308.00 Z"/>
</g>
<g fill="None" fill-opacity="0.0" stroke="#CEAD51" stroke-opacity="1.00" stroke-width="0.3"><path d="
M 123.00 298.00 
C 120.14 297.03 115.33 289.19 112.00 287.00
C 115.49 290.93 118.53 294.84 123.00 298.00 Z"/>
</g>
<g fill="None" fill-opacity="0.0" stroke="#EC9E78" stroke-opacity="1.00" stroke-width="0.3"><path d="
M 128.00 298.00 
C 134.94 297.37 142.04 298.47 149.00 298.00
C 148.41 302.35 148.70 309.41 155.00 308.00
C 160.93 298.92 158.38 286.61 146.67 290.67 C 134.96 294.73 128.71 287.64 118.00 288.00
C 120.98 290.92 124.64 296.81 128.00 298.00 Z"/>
</g>
<g fill="None" fill-opacity="0.0" stroke="#DFE6A9" stroke-opacity="1.00" stroke-width="0.3"><path d="
M 248.00 300.00 
C 248.34 299.44 248.48 298.48 249.00 298.00
C 248.53 298.12 247.47 297.88 247.00 298.00
C 246.32 298.18 245.09 298.78 244.00 299.00
C 237.53 302.11 233.40 308.89 225.75 310.20 C 218.11 311.50 210.50 318.63 201.99 317.99 C 193.48 317.35 179.35 319.27 171.33 317.67 C 163.31 316.07 153.92 315.08 147.92 311.08 C 141.93 307.07 131.53 306.22 128.00 299.00
C 127.80 298.60 128.00 298.00 128.00 298.00
C 126.51 297.49 124.49 298.51 123.00 298.00
C 131.91 304.30 139.87 309.80 150.25 313.75 C 160.64 317.69 173.43 321.73 185.00 321.00 C 196.57 320.27 211.51 320.17 220.93 314.93 C 230.34 309.68 242.35 309.29 248.00 300.00 Z"/>
</g>
<g fill="None" fill-opacity="0.0" stroke="#F6DEC9" stroke-opacity="1.00" stroke-width="0.3"><path d="
M 128.00 299.00 
C 136.24 299.75 151.08 295.17 147.00 309.00
C 153.74 309.81 162.67 313.85 172.07 314.93 C 181.48 316.01 198.72 315.55 207.07 313.07 C 215.42 310.60 228.81 310.44 226.00 301.00
C 231.60 298.79 238.39 301.21 244.00 299.00
C 245.09 298.78 246.32 298.18 247.00 298.00
C 239.00 298.00 231.00 298.00 223.00 298.00
C 225.91 305.15 222.69 306.18 217.00 308.00
C 196.68 314.51 175.46 313.71 155.00 308.00
C 148.70 309.41 148.41 302.35 149.00 298.00
C 142.04 298.47 134.94 297.37 128.00 298.00
C 128.00 298.00 127.80 298.60 128.00 299.00 Z"/>
</g>
<g fill="None" fill-opacity="0.0" stroke="#FDFCE8" stroke-opacity="1.00" stroke-width="0.3"><path d="
M 244.00 299.00 
C 238.39 301.21 231.60 298.79 226.00 301.00
C 228.81 310.44 215.42 310.60 207.07 313.07 C 198.72 315.55 181.48 316.01 172.07 314.93 C 162.67 313.85 153.74 309.81 147.00 309.00
C 151.08 295.17 136.24 299.75 128.00 299.00
C 131.53 306.22 141.93 307.07 147.92 311.08 C 153.92 315.08 163.31 316.07 171.33 317.67 C 179.35 319.27 193.48 317.35 201.99 317.99 C 210.50 318.63 218.11 311.50 225.75 310.20 C 233.40 308.89 237.53 302.11 244.00 299.00 Z"/>
</g>
<g fill="None" fill-opacity="0.0" stroke="#EFF8C9" stroke-opacity="1.00" stroke-width="0.3"><path d="
M 218.00 327.00 
C 211.84 328.57 204.37 331.38 198.00 332.00
C 213.83 332.00 234.32 326.18 246.00 316.00
C 237.80 321.29 227.65 325.59 218.00 327.00 Z"/>
</g>
<g fill="None" fill-opacity="0.0" stroke="#C8D68E" stroke-opacity="1.00" stroke-width="0.3"><path d="
M 171.00 332.00 
C 179.94 332.48 189.05 332.00 198.00 332.00
C 204.37 331.38 211.84 328.57 218.00 327.00
C 192.88 330.67 171.30 331.79 147.00 324.00
C 154.36 327.29 162.96 330.85 171.00 332.00 Z"/>
</g>
<g fill="#FEFEFE" fill-opacity="1.00" stroke="None">
<path d="
M 0.00 379.00 
L 379.00 379.00
L 379.00 0.00
L 0.00 0.00
L 0.00 379.00
M 258.00 211.00 
C 263.98 219.21 261.30 236.69 249.90 239.90 C 238.50 243.11 235.19 255.14 225.00 261.00
C 227.16 267.34 241.69 265.99 247.67 264.67 C 253.65 263.35 264.80 261.60 266.92 254.92 C 269.05 248.24 274.21 239.45 284.00 242.00
C 291.19 239.21 287.20 219.88 299.69 225.31 C 312.18 230.74 301.70 241.26 302.00 250.00
C 309.02 254.88 304.11 269.59 301.00 275.00
C 301.95 273.93 303.17 273.08 304.00 272.00
C 303.89 283.44 289.31 283.38 282.23 289.23 C 275.16 295.08 271.05 305.60 263.70 309.70 C 256.34 313.79 248.28 316.77 239.26 322.26 C 230.23 327.74 219.80 330.31 208.98 332.98 C 198.16 335.65 180.85 333.81 169.78 333.22 C 158.70 332.63 146.08 325.71 137.00 328.00
C 132.21 323.49 122.67 317.14 115.75 312.25 C 108.83 307.36 102.33 302.72 97.30 295.70 C 92.26 288.69 84.78 285.80 75.00 285.00
C 73.02 276.84 63.46 271.80 65.94 261.92 C 68.41 252.04 70.72 242.90 66.00 233.00 C 61.29 223.09 64.74 209.57 64.21 199.77 C 63.68 189.97 69.73 183.06 69.00 174.00
C 74.52 169.75 76.06 161.07 76.00 155.00
C 72.45 156.78 71.70 156.01 68.00 155.00
C 71.06 143.04 69.44 129.39 73.31 118.31 C 77.17 107.22 82.97 99.42 84.00 89.00
C 93.88 86.70 98.02 75.81 106.77 69.77 C 115.52 63.73 121.49 60.23 133.01 58.01 C 144.53 55.78 157.32 52.65 170.00 53.00 C 182.68 53.35 194.56 55.87 207.07 57.93 C 219.59 59.99 229.60 59.91 241.10 62.90 C 252.59 65.89 267.93 65.00 279.10 61.10 C 290.26 57.19 297.97 57.60 307.25 47.25 C 316.54 36.90 325.38 52.59 322.07 64.08 C 318.77 75.56 320.25 85.42 315.61 95.75 C 310.96 106.08 308.00 116.61 303.00 126.00
C 294.81 127.25 295.91 141.96 288.08 146.08 C 280.24 150.19 276.31 159.03 268.75 163.75 C 261.18 168.47 251.64 174.86 243.00 176.00
C 240.77 188.19 249.09 202.74 258.00 211.00 Z"/>
</g>
<g fill="#FCFDE7" fill-opacity="1.00" stroke="None">
<path d="
M 301.00 275.00 
C 297.80 280.57 292.17 284.03 285.00 284.00
C 284.05 284.00 282.94 283.86 282.00 284.00
C 275.27 284.98 271.31 297.26 265.25 301.25 C 259.19 305.25 252.25 311.97 246.00 316.00
C 234.32 326.18 213.83 332.00 198.00 332.00
C 189.05 332.00 179.94 332.48 171.00 332.00
C 164.96 331.67 159.29 329.47 153.78 328.22 C 148.26 326.98 143.03 326.18 137.78 324.22 C 132.52 322.26 128.12 319.07 123.75 316.25 C 119.39 313.42 114.73 310.23 111.25 306.75 C 107.76 303.27 101.24 301.36 99.75 296.25 C 98.25 291.15 90.09 288.25 89.00 285.00
C 87.69 285.72 85.17 284.42 84.00 286.00
C 71.58 278.92 59.06 260.17 73.00 248.00
C 72.18 245.42 71.59 242.68 71.00 240.00
C 52.59 193.08 83.81 130.63 130.00 114.00
C 163.08 102.09 204.01 89.77 238.00 107.00
C 220.93 109.43 201.84 107.37 185.00 112.00
C 155.24 120.91 119.72 129.15 102.00 158.00
C 111.26 163.51 122.58 167.00 133.00 171.00
C 130.14 197.46 103.11 172.92 90.00 174.00
C 82.61 195.79 79.20 220.72 87.00 243.00
C 97.04 234.90 102.62 249.43 105.00 255.00
C 107.03 258.38 108.79 259.02 112.00 261.00
C 108.32 257.62 106.49 253.12 103.68 246.32 C 100.87 239.53 91.79 239.48 87.00 237.00
C 80.82 216.65 83.23 194.36 92.00 176.00
C 103.97 176.40 115.58 189.28 129.00 185.00
C 129.11 186.00 128.53 187.73 130.00 188.00
C 133.40 180.55 137.12 173.00 143.30 167.30 C 149.49 161.60 156.09 156.76 164.07 154.07 C 172.05 151.39 186.42 147.83 195.00 150.00 C 203.58 152.17 213.37 153.62 219.70 159.31 C 226.02 164.99 234.33 167.40 236.75 174.25 C 239.18 181.09 246.51 192.25 246.00 200.00
C 245.97 200.50 246.00 201.00 246.00 201.00
C 249.45 204.53 254.57 207.06 258.00 211.00
C 249.09 202.74 240.77 188.19 243.00 176.00
C 251.64 174.86 261.18 168.47 268.75 163.75 C 276.31 159.03 280.24 150.19 288.08 146.08 C 295.91 141.96 294.81 127.25 303.00 126.00
C 308.00 116.61 310.96 106.08 315.61 95.75 C 320.25 85.42 318.77 75.56 322.07 64.08 C 325.38 52.59 316.54 36.90 307.25 47.25 C 297.97 57.60 290.26 57.19 279.10 61.10 C 267.93 65.00 252.59 65.89 241.10 62.90 C 229.60 59.91 219.59 59.99 207.07 57.93 C 194.56 55.87 182.68 53.35 170.00 53.00 C 157.32 52.65 144.53 55.78 133.01 58.01 C 121.49 60.23 115.52 63.73 106.77 69.77 C 98.02 75.81 93.88 86.70 84.00 89.00
C 82.97 99.42 77.17 107.22 73.31 118.31 C 69.44 129.39 71.06 143.04 68.00 155.00
C 71.70 156.01 72.45 156.78 76.00 155.00
C 76.06 161.07 74.52 169.75 69.00 174.00
C 69.73 183.06 63.68 189.97 64.21 199.77 C 64.74 209.57 61.29 223.09 66.00 233.00 C 70.72 242.90 68.41 252.04 65.94 261.92 C 63.46 271.80 73.02 276.84 75.00 285.00
C 84.78 285.80 92.26 288.69 97.30 295.70 C 102.33 302.72 108.83 307.36 115.75 312.25 C 122.67 317.14 132.21 323.49 137.00 328.00
C 146.08 325.71 158.70 332.63 169.78 333.22 C 180.85 333.81 198.16 335.65 208.98 332.98 C 219.80 330.31 230.23 327.74 239.26 322.26 C 248.28 316.77 256.34 313.79 263.70 309.70 C 271.05 305.60 275.16 295.08 282.23 289.23 C 289.31 283.38 303.89 283.44 304.00 272.00
C 303.17 273.08 301.95 273.93 301.00 275.00
M 298.00 125.00 
C 291.40 135.03 279.50 150.07 270.25 157.25 C 261.00 164.43 239.81 183.29 235.00 166.00
C 232.28 156.23 256.30 153.19 261.25 145.25 C 266.19 137.30 278.91 128.50 283.77 118.77 C 288.63 109.04 297.10 96.38 300.00 86.00
C 302.34 73.19 294.23 76.08 284.99 78.99 C 275.76 81.90 266.79 82.29 257.00 82.00 C 247.21 81.71 238.27 80.25 229.00 79.00 C 219.72 77.76 212.01 75.75 202.98 74.02 C 193.95 72.30 184.27 71.68 175.00 71.00 C 165.73 70.32 155.42 71.73 146.93 72.93 C 138.44 74.13 131.45 77.92 124.25 81.25 C 117.06 84.59 111.87 89.22 106.70 94.70 C 101.54 100.19 97.59 107.21 94.22 113.22 C 90.86 119.24 89.41 131.45 86.25 136.25 C 83.08 141.04 75.37 153.66 73.00 150.00
C 68.29 142.71 74.69 128.37 75.00 120.00 C 75.30 111.62 82.76 104.57 85.75 96.75 C 88.75 88.94 94.56 84.04 100.75 77.75 C 106.95 71.47 113.62 67.63 121.69 63.69 C 129.77 59.76 138.36 57.01 148.01 56.01 C 157.66 55.01 170.83 54.63 181.00 55.00 C 191.17 55.38 201.30 58.48 211.01 59.99 C 220.72 61.51 230.79 63.34 240.22 64.78 C 249.65 66.22 264.06 66.27 273.00 66.00 C 281.94 65.73 291.52 59.94 298.23 57.23 C 304.94 54.51 312.58 39.65 319.23 46.77 C 325.87 53.89 319.07 68.68 319.01 77.01 C 318.95 85.34 312.84 94.84 311.08 103.08 C 309.32 111.31 303.33 118.64 298.00 125.00
M 299.00 78.00 
C 294.87 97.94 284.74 115.29 273.22 130.22 C 261.71 145.16 241.63 150.98 231.00 166.00
C 217.91 154.95 197.05 145.19 178.99 148.99 C 160.93 152.79 145.65 158.13 136.00 175.00
C 131.60 162.02 112.20 165.76 104.00 156.00
C 106.49 152.33 111.33 149.18 116.00 148.00
C 119.44 138.28 129.68 133.14 139.08 129.08 C 148.48 125.02 158.35 122.04 169.01 118.01 C 179.67 113.98 194.46 114.60 206.01 112.01 C 217.56 109.41 232.41 112.67 242.00 109.00
C 240.06 107.01 240.66 105.50 240.00 103.00
C 231.48 101.18 223.95 98.58 215.00 98.00 C 206.05 97.42 196.51 97.02 187.98 96.98 C 179.44 96.93 168.64 99.26 160.99 100.99 C 153.34 102.72 146.26 103.15 138.99 106.99 C 131.72 110.84 124.97 111.72 118.75 116.75 C 112.54 121.79 107.79 125.24 100.97 129.97 C 94.16 134.70 94.92 140.58 87.25 146.25 C 79.57 151.91 84.17 142.01 89.75 136.75 C 95.33 131.50 92.01 119.00 96.92 112.92 C 101.84 106.85 102.90 100.21 108.75 94.75 C 114.60 89.29 118.45 85.24 126.23 82.23 C 134.00 79.22 140.55 75.25 149.02 74.02 C 157.49 72.80 168.12 70.96 177.00 72.00 C 185.88 73.04 194.42 74.48 203.00 76.00 C 211.58 77.51 218.88 80.81 227.22 82.78 C 235.57 84.74 243.96 82.50 251.74 85.60 C 259.52 88.69 265.75 84.58 274.07 84.07 C 282.40 83.57 290.95 79.88 299.00 78.00 Z"/>
</g>
<g fill="#FAFDCF" fill-opacity="1.00" stroke="None">
<path d="
M 73.00 150.00 
C 71.90 147.20 73.70 143.09 74.00 141.00
C 73.12 128.48 78.98 115.30 83.00 104.00
C 85.83 96.03 90.51 90.07 96.75 83.75 C 103.00 77.43 108.24 72.33 116.22 68.22 C 124.21 64.12 132.30 60.55 141.67 58.67 C 151.04 56.80 162.56 55.48 173.00 56.00 C 183.44 56.52 194.31 57.24 204.22 59.78 C 214.13 62.31 224.05 62.64 234.01 64.99 C 243.97 67.35 254.66 66.70 265.00 68.00 C 275.34 69.30 283.50 62.24 292.69 60.69 C 301.89 59.15 305.70 48.46 314.03 47.03 C 322.35 45.59 318.49 67.71 317.67 74.67 C 316.85 81.63 312.14 94.43 310.02 102.02 C 307.91 109.62 302.45 118.24 298.00 125.00
C 303.33 118.64 309.32 111.31 311.08 103.08 C 312.84 94.84 318.95 85.34 319.01 77.01 C 319.07 68.68 325.87 53.89 319.23 46.77 C 312.58 39.65 304.94 54.51 298.23 57.23 C 291.52 59.94 281.94 65.73 273.00 66.00 C 264.06 66.27 249.65 66.22 240.22 64.78 C 230.79 63.34 220.72 61.51 211.01 59.99 C 201.30 58.48 191.17 55.38 181.00 55.00 C 170.83 54.63 157.66 55.01 148.01 56.01 C 138.36 57.01 129.77 59.76 121.69 63.69 C 113.62 67.63 106.95 71.47 100.75 77.75 C 94.56 84.04 88.75 88.94 85.75 96.75 C 82.76 104.57 75.30 111.62 75.00 120.00 C 74.69 128.37 68.29 142.71 73.00 150.00 Z"/>
</g>
<g fill="#E0E799" fill-opacity="1.00" stroke="None">
<path d="
M 83.00 104.00 
C 89.47 90.47 100.47 81.47 113.25 72.25 C 126.02 63.02 144.76 58.31 162.00 58.00 C 179.24 57.69 201.00 59.76 218.00 64.00 C 235.00 68.24 257.28 69.79 275.07 68.07 C 292.87 66.35 303.48 55.54 318.00 48.00
C 317.64 58.70 317.82 72.15 315.00 82.00 C 312.19 91.85 309.36 100.10 305.08 109.08 C 300.79 118.05 296.89 123.82 291.23 132.23 C 285.57 140.64 281.17 143.73 273.75 151.75 C 266.33 159.77 261.64 159.75 251.93 166.93 C 242.22 174.10 234.01 164.90 245.08 159.08 C 256.14 153.26 258.70 150.77 266.75 143.75 C 274.80 136.74 277.60 131.84 284.25 124.25 C 290.89 116.65 291.98 110.62 296.31 101.31 C 300.63 91.99 304.46 81.89 304.00 71.00
C 283.38 80.37 257.75 83.98 235.00 79.00 C 212.25 74.03 186.46 68.84 163.00 69.00 C 139.54 69.16 122.15 77.25 105.75 92.75 C 89.36 108.26 92.56 130.88 77.00 146.00
C 76.04 147.34 75.87 150.23 74.00 151.00
C 74.00 148.33 74.00 145.67 74.00 143.00
C 74.00 142.50 74.03 141.50 74.00 141.00
C 73.70 143.09 71.90 147.20 73.00 150.00
C 75.37 153.66 83.08 141.04 86.25 136.25 C 89.41 131.45 90.86 119.24 94.22 113.22 C 97.59 107.21 101.54 100.19 106.70 94.70 C 111.87 89.22 117.06 84.59 124.25 81.25 C 131.45 77.92 138.44 74.13 146.93 72.93 C 155.42 71.73 165.73 70.32 175.00 71.00 C 184.27 71.68 193.95 72.30 202.98 74.02 C 212.01 75.75 219.72 77.76 229.00 79.00 C 238.27 80.25 247.21 81.71 257.00 82.00 C 266.79 82.29 275.76 81.90 284.99 78.99 C 294.23 76.08 302.34 73.19 300.00 86.00
C 298.36 94.97 291.60 102.60 289.23 111.23 C 286.86 119.86 280.17 126.16 275.08 133.08 C 270.00 140.01 260.78 144.78 256.23 150.23 C 251.68 155.69 234.94 158.81 235.00 166.00
C 239.81 183.29 261.00 164.43 270.25 157.25 C 279.50 150.07 291.40 135.03 298.00 125.00
C 302.45 118.24 307.91 109.62 310.02 102.02 C 312.14 94.43 316.85 81.63 317.67 74.67 C 318.49 67.71 322.35 45.59 314.03 47.03 C 305.70 48.46 301.89 59.15 292.69 60.69 C 283.50 62.24 275.34 69.30 265.00 68.00 C 254.66 66.70 243.97 67.35 234.01 64.99 C 224.05 62.64 214.13 62.31 204.22 59.78 C 194.31 57.24 183.44 56.52 173.00 56.00 C 162.56 55.48 151.04 56.80 141.67 58.67 C 132.30 60.55 124.21 64.12 116.22 68.22 C 108.24 72.33 103.00 77.43 96.75 83.75 C 90.51 90.07 85.83 96.03 83.00 104.00 Z"/>
</g>
<g fill="#C1CF45" fill-opacity="1.00" stroke="None">
<path d="
M 83.00 104.00 
C 78.98 115.30 73.12 128.48 74.00 141.00
C 74.03 141.50 74.00 142.50 74.00 143.00
C 74.59 144.99 75.73 145.36 77.00 146.00
C 92.56 130.88 89.36 108.26 105.75 92.75 C 122.15 77.25 139.54 69.16 163.00 69.00 C 186.46 68.84 212.25 74.03 235.00 79.00 C 257.75 83.98 283.38 80.37 304.00 71.00
C 304.46 81.89 300.63 91.99 296.31 101.31 C 291.98 110.62 290.89 116.65 284.25 124.25 C 277.60 131.84 274.80 136.74 266.75 143.75 C 258.70 150.77 256.14 153.26 245.08 159.08 C 234.01 164.90 242.22 174.10 251.93 166.93 C 261.64 159.75 266.33 159.77 273.75 151.75 C 281.17 143.73 285.57 140.64 291.23 132.23 C 296.89 123.82 300.79 118.05 305.08 109.08 C 309.36 100.10 312.19 91.85 315.00 82.00 C 317.82 72.15 317.64 58.70 318.00 48.00
C 303.48 55.54 292.87 66.35 275.07 68.07 C 257.28 69.79 235.00 68.24 218.00 64.00 C 201.00 59.76 179.24 57.69 162.00 58.00 C 144.76 58.31 126.02 63.02 113.25 72.25 C 100.47 81.47 89.47 90.47 83.00 104.00 Z"/>
</g>
<g fill="#FEFEFD" fill-opacity="1.00" stroke="None">
<path d="
M 299.00 78.00 
C 290.95 79.88 282.40 83.57 274.07 84.07 C 265.75 84.58 259.52 88.69 251.74 85.60 C 243.96 82.50 235.57 84.74 227.22 82.78 C 218.88 80.81 211.58 77.51 203.00 76.00 C 194.42 74.48 185.88 73.04 177.00 72.00 C 168.12 70.96 157.49 72.80 149.02 74.02 C 140.55 75.25 134.00 79.22 126.23 82.23 C 118.45 85.24 114.60 89.29 108.75 94.75 C 102.90 100.21 101.84 106.85 96.92 112.92 C 92.01 119.00 95.33 131.50 89.75 136.75 C 84.17 142.01 79.57 151.91 87.25 146.25 C 94.92 140.58 94.16 134.70 100.97 129.97 C 107.79 125.24 112.54 121.79 118.75 116.75 C 124.97 111.72 131.72 110.84 138.99 106.99 C 146.26 103.15 153.34 102.72 160.99 100.99 C 168.64 99.26 179.44 96.93 187.98 96.98 C 196.51 97.02 206.05 97.42 215.00 98.00 C 223.95 98.58 231.48 101.18 240.00 103.00
C 240.66 105.50 240.06 107.01 242.00 109.00
C 232.41 112.67 217.56 109.41 206.01 112.01 C 194.46 114.60 179.67 113.98 169.01 118.01 C 158.35 122.04 148.48 125.02 139.08 129.08 C 129.68 133.14 119.44 138.28 116.00 148.00
C 111.33 149.18 106.49 152.33 104.00 156.00
C 112.20 165.76 131.60 162.02 136.00 175.00
C 145.65 158.13 160.93 152.79 178.99 148.99 C 197.05 145.19 217.91 154.95 231.00 166.00
C 241.63 150.98 261.71 145.16 273.22 130.22 C 284.74 115.29 294.87 97.94 299.00 78.00 Z"/>
</g>
<g fill="#F8FACA" fill-opacity="1.00" stroke="None">
<path d="
M 235.00 166.00 
C 234.94 158.81 251.68 155.69 256.23 150.23 C 260.78 144.78 270.00 140.01 275.08 133.08 C 280.17 126.16 286.86 119.86 289.23 111.23 C 291.60 102.60 298.36 94.97 300.00 86.00
C 297.10 96.38 288.63 109.04 283.77 118.77 C 278.91 128.50 266.19 137.30 261.25 145.25 C 256.30 153.19 232.28 156.23 235.00 166.00 Z"/>
</g>
<g fill="#E2E7A1" fill-opacity="1.00" stroke="None">
<path d="
M 130.00 114.00 
C 101.25 128.22 74.97 158.08 70.00 190.00
C 86.64 124.83 159.67 89.30 224.00 105.00
C 209.79 109.37 191.84 105.95 178.00 112.00
C 180.28 112.00 182.73 112.26 185.00 112.00
C 201.84 107.37 220.93 109.43 238.00 107.00
C 204.01 89.77 163.08 102.09 130.00 114.00 Z"/>
</g>
<g fill="#B9C849" fill-opacity="1.00" stroke="None">
<path d="
M 70.00 190.00 
C 67.41 206.65 67.37 223.62 71.00 240.00
C 71.59 242.68 72.18 245.42 73.00 248.00
C 73.16 247.77 74.00 248.00 74.00 248.00
C 75.84 246.95 77.38 246.00 80.00 247.00 C 82.62 248.01 83.02 244.70 84.00 244.00
C 86.10 236.38 78.89 227.39 80.00 219.00 C 81.11 210.61 79.46 200.21 82.33 192.33 C 85.20 184.44 85.78 177.32 90.00 170.00
C 98.68 172.12 104.98 175.58 113.23 179.77 C 121.48 183.96 130.51 183.41 132.00 172.00
C 120.56 169.77 110.82 163.22 100.00 159.00
C 96.35 154.41 108.48 146.57 112.25 142.25 C 116.02 137.93 123.95 131.42 130.08 129.08 C 136.22 126.74 144.05 120.68 151.08 119.08 C 158.10 117.47 168.61 111.29 176.00 112.00
C 176.50 112.05 177.50 112.00 178.00 112.00
C 191.84 105.95 209.79 109.37 224.00 105.00
C 159.67 89.30 86.64 124.83 70.00 190.00 Z"/>
</g>
<g fill="#DDE496" fill-opacity="1.00" stroke="None">
<path d="
M 100.00 159.00 
C 97.30 153.48 109.87 147.04 113.25 142.25 C 116.62 137.46 125.91 132.77 131.75 129.75 C 137.58 126.72 146.14 122.16 153.08 120.08 C 160.01 117.99 169.27 114.33 176.00 112.00
C 168.61 111.29 158.10 117.47 151.08 119.08 C 144.05 120.68 136.22 126.74 130.08 129.08 C 123.95 131.42 116.02 137.93 112.25 142.25 C 108.48 146.57 96.35 154.41 100.00 159.00 Z"/>
</g>
<g fill="#F4F9C6" fill-opacity="1.00" stroke="None">
<path d="
M 100.00 159.00 
C 110.82 163.22 120.56 169.77 132.00 172.00
C 130.51 183.41 121.48 183.96 113.23 179.77 C 104.98 175.58 98.68 172.12 90.00 170.00
C 85.78 177.32 85.20 184.44 82.33 192.33 C 79.46 200.21 81.11 210.61 80.00 219.00 C 78.89 227.39 86.10 236.38 84.00 244.00
C 84.57 243.59 86.53 244.50 87.00 244.00
C 87.25 243.73 87.00 243.00 87.00 243.00
C 79.20 220.72 82.61 195.79 90.00 174.00
C 103.11 172.92 130.14 197.46 133.00 171.00
C 122.58 167.00 111.26 163.51 102.00 158.00
C 119.72 129.15 155.24 120.91 185.00 112.00
C 182.73 112.26 180.28 112.00 178.00 112.00
C 177.50 112.00 176.50 112.05 176.00 112.00
C 169.27 114.33 160.01 117.99 153.08 120.08 C 146.14 122.16 137.58 126.72 131.75 129.75 C 125.91 132.77 116.62 137.46 113.25 142.25 C 109.87 147.04 97.30 153.48 100.00 159.00 Z"/>
</g>
<g fill="#F8FCCD" fill-opacity="1.00" stroke="None">
<path d="
M 71.00 240.00 
C 67.37 223.62 67.41 206.65 70.00 190.00
C 74.97 158.08 101.25 128.22 130.00 114.00
C 83.81 130.63 52.59 193.08 71.00 240.00 Z"/>
</g>
<g fill="#A5B168" fill-opacity="1.00" stroke="None">
<path d="
M 77.00 146.00 
C 75.73 145.36 74.59 144.99 74.00 143.00
C 74.00 145.67 74.00 148.33 74.00 151.00
C 75.87 150.23 76.04 147.34 77.00 146.00 Z"/>
</g>
<g fill="#F3D6C0" fill-opacity="1.00" stroke="None">
<path d="
M 130.00 188.00 
C 125.79 197.21 127.14 204.68 116.75 209.75 C 106.36 214.82 114.80 229.74 115.00 236.00
C 121.32 240.37 130.30 240.20 134.30 246.70 C 138.30 253.19 142.74 258.03 148.00 263.00
C 138.70 269.35 124.14 260.12 117.00 264.00
C 127.56 266.34 146.38 273.55 153.00 262.00
C 140.22 262.82 139.34 240.61 128.97 239.03 C 118.61 237.44 106.26 218.51 118.25 211.25 C 130.24 203.99 128.78 192.37 135.30 181.30 C 141.83 170.24 148.90 164.56 159.69 158.69 C 170.49 152.83 186.79 150.32 199.00 153.00 C 211.21 155.68 219.47 162.27 228.75 170.25 C 238.03 178.23 241.32 189.79 246.00 200.00
C 246.51 192.25 239.18 181.09 236.75 174.25 C 234.33 167.40 226.02 164.99 219.70 159.31 C 213.37 153.62 203.58 152.17 195.00 150.00 C 186.42 147.83 172.05 151.39 164.07 154.07 C 156.09 156.76 149.49 161.60 143.30 167.30 C 137.12 173.00 133.40 180.55 130.00 188.00 Z"/>
</g>
<g fill="#E9A079" fill-opacity="1.00" stroke="None">
<path d="
M 117.00 264.00 
C 116.52 263.89 115.50 264.04 115.00 264.00
C 101.33 263.03 102.52 239.21 87.00 245.00
C 87.25 250.00 74.57 254.51 73.00 250.00
C 62.20 260.29 72.36 283.62 88.00 283.00
C 85.48 280.43 89.25 268.27 93.00 267.00
C 90.67 263.20 95.32 255.36 91.00 252.00
C 98.00 252.77 98.51 261.27 98.00 267.00
C 98.50 269.65 102.62 271.83 103.00 273.00
C 103.76 270.64 104.06 267.58 106.00 266.00
C 114.37 273.32 126.65 273.90 138.00 274.00 C 149.35 274.10 160.47 266.78 171.67 271.33 C 182.87 275.88 195.30 274.37 206.03 271.03 C 216.76 267.68 227.13 275.17 239.00 275.00 C 250.87 274.83 260.84 268.49 271.00 270.00
C 275.98 263.90 271.03 258.72 276.31 252.31 C 281.58 245.89 285.34 254.63 279.00 259.00
C 278.81 260.62 279.00 262.37 279.00 264.00
C 280.36 270.98 288.07 272.69 286.00 282.00
C 299.28 277.65 310.91 265.28 300.00 251.00
C 297.07 250.78 286.51 250.69 287.00 246.00
C 277.19 241.46 268.00 248.59 268.00 259.00
C 254.61 266.73 236.95 269.63 221.00 265.00
C 226.75 256.50 237.39 250.62 240.00 240.00
C 249.58 238.65 256.95 234.28 259.00 224.00 C 261.05 213.71 250.55 207.21 246.00 201.00
C 246.00 201.00 245.97 200.50 246.00 200.00
C 241.32 189.79 238.03 178.23 228.75 170.25 C 219.47 162.27 211.21 155.68 199.00 153.00 C 186.79 150.32 170.49 152.83 159.69 158.69 C 148.90 164.56 141.83 170.24 135.30 181.30 C 128.78 192.37 130.24 203.99 118.25 211.25 C 106.26 218.51 118.61 237.44 128.97 239.03 C 139.34 240.61 140.22 262.82 153.00 262.00
C 146.38 273.55 127.56 266.34 117.00 264.00
M 136.00 199.00 
C 137.51 192.05 139.70 185.56 143.75 179.75 C 147.81 173.94 151.85 169.91 158.23 166.23 C 164.61 162.55 170.48 159.74 178.22 158.22 C 185.97 156.71 195.70 158.83 203.07 160.93 C 210.45 163.03 215.13 165.69 220.77 171.23 C 226.41 176.77 229.12 178.85 233.33 186.67 C 237.53 194.50 236.54 200.33 226.00 199.00 C 215.46 197.67 209.61 198.56 201.00 196.00 C 192.38 193.44 189.50 189.95 181.77 187.23 C 174.04 184.51 174.01 177.67 166.75 174.25 C 159.49 170.83 158.39 185.72 153.90 188.90 C 149.40 192.08 141.94 198.25 136.00 199.00
M 250.00 215.00 
C 251.67 217.29 251.51 218.27 252.00 221.00
C 254.40 234.26 240.19 227.68 235.00 234.00
C 231.53 239.72 229.97 244.98 225.00 250.00
C 219.05 256.01 214.39 259.78 206.93 262.93 C 199.46 266.07 189.64 270.06 181.00 268.00 C 172.36 265.94 164.66 264.54 157.92 259.08 C 151.18 253.62 145.48 253.26 142.08 243.92 C 138.68 234.58 134.26 233.41 124.77 230.23 C 115.28 227.05 121.39 213.61 128.22 211.22 C 135.06 208.83 140.77 202.90 149.08 201.08 C 157.39 199.25 159.05 188.38 164.00 184.00
C 173.79 186.46 178.64 195.29 188.69 198.31 C 198.75 201.32 209.58 205.68 221.01 204.99 C 232.43 204.30 243.20 207.00 250.00 215.00
M 82.00 255.00 
C 89.05 256.14 88.03 271.46 80.97 270.97 C 73.92 270.48 73.60 253.64 82.00 255.00
M 296.00 255.00 
C 301.73 257.87 296.40 274.56 289.31 269.69 C 282.21 264.83 287.44 250.71 296.00 255.00 Z"/>
</g>
<g fill="#FDBC8C" fill-opacity="1.00" stroke="None">
<path d="
M 136.00 199.00 
C 141.94 198.25 149.40 192.08 153.90 188.90 C 158.39 185.72 159.49 170.83 166.75 174.25 C 174.01 177.67 174.04 184.51 181.77 187.23 C 189.50 189.95 192.38 193.44 201.00 196.00 C 209.61 198.56 215.46 197.67 226.00 199.00 C 236.54 200.33 237.53 194.50 233.33 186.67 C 229.12 178.85 226.41 176.77 220.77 171.23 C 215.13 165.69 210.45 163.03 203.07 160.93 C 195.70 158.83 185.97 156.71 178.22 158.22 C 170.48 159.74 164.61 162.55 158.23 166.23 C 151.85 169.91 147.81 173.94 143.75 179.75 C 139.70 185.56 137.51 192.05 136.00 199.00 Z"/>
</g>
<g fill="#FEFDFB" fill-opacity="1.00" stroke="None">
<path d="
M 112.00 261.00 
C 113.30 261.80 114.13 263.37 115.00 264.00
C 115.50 264.04 116.52 263.89 117.00 264.00
C 124.14 260.12 138.70 269.35 148.00 263.00
C 142.74 258.03 138.30 253.19 134.30 246.70 C 130.30 240.20 121.32 240.37 115.00 236.00
C 114.80 229.74 106.36 214.82 116.75 209.75 C 127.14 204.68 125.79 197.21 130.00 188.00
C 128.53 187.73 129.11 186.00 129.00 185.00
C 115.58 189.28 103.97 176.40 92.00 176.00
C 83.23 194.36 80.82 216.65 87.00 237.00
C 91.79 239.48 100.87 239.53 103.68 246.32 C 106.49 253.12 108.32 257.62 112.00 261.00 Z"/>
</g>
<g fill="#E9C1A7" fill-opacity="1.00" stroke="None">
<path d="
M 225.00 250.00 
C 218.16 255.91 212.29 260.00 204.71 263.71 C 197.12 267.41 183.21 268.19 174.99 266.01 C 166.77 263.82 159.85 258.46 152.77 254.23 C 145.69 250.00 142.09 239.95 138.23 234.77 C 134.37 229.59 116.97 228.51 121.78 218.78 C 126.58 209.04 134.59 210.17 142.07 205.07 C 149.56 199.98 157.47 200.48 161.75 190.75 C 166.04 181.03 172.75 190.51 180.08 194.92 C 187.40 199.34 195.26 203.08 204.68 204.32 C 214.10 205.57 227.77 206.53 238.00 206.00
C 238.13 212.93 245.30 212.32 250.00 215.00
C 243.20 207.00 232.43 204.30 221.01 204.99 C 209.58 205.68 198.75 201.32 188.69 198.31 C 178.64 195.29 173.79 186.46 164.00 184.00
C 159.05 188.38 157.39 199.25 149.08 201.08 C 140.77 202.90 135.06 208.83 128.22 211.22 C 121.39 213.61 115.28 227.05 124.77 230.23 C 134.26 233.41 138.68 234.58 142.08 243.92 C 145.48 253.26 151.18 253.62 157.92 259.08 C 164.66 264.54 172.36 265.94 181.00 268.00 C 189.64 270.06 199.46 266.07 206.93 262.93 C 214.39 259.78 219.05 256.01 225.00 250.00 Z"/>
</g>
<g fill="#FDEDDB" fill-opacity="1.00" stroke="None">
<path d="
M 225.00 250.00 
C 229.97 244.98 231.53 239.72 235.00 234.00
C 239.32 226.87 252.27 233.95 252.00 221.00
C 251.51 218.27 251.67 217.29 250.00 215.00
C 245.30 212.32 238.13 212.93 238.00 206.00
C 227.77 206.53 214.10 205.57 204.68 204.32 C 195.26 203.08 187.40 199.34 180.08 194.92 C 172.75 190.51 166.04 181.03 161.75 190.75 C 157.47 200.48 149.56 199.98 142.07 205.07 C 134.59 210.17 126.58 209.04 121.78 218.78 C 116.97 228.51 134.37 229.59 138.23 234.77 C 142.09 239.95 145.69 250.00 152.77 254.23 C 159.85 258.46 166.77 263.82 174.99 266.01 C 183.21 268.19 197.12 267.41 204.71 263.71 C 212.29 260.00 218.16 255.91 225.00 250.00
M 168.00 188.00 
C 173.62 189.07 176.42 198.19 182.68 199.32 C 188.94 200.45 195.96 204.42 203.02 204.98 C 210.08 205.54 218.01 209.90 226.00 208.00 C 233.99 206.10 239.63 212.52 246.23 214.77 C 252.83 217.02 251.59 231.48 242.98 229.98 C 234.36 228.47 231.56 235.85 229.02 242.02 C 226.49 248.20 220.56 251.13 215.97 254.97 C 211.38 258.81 205.29 260.88 198.78 262.78 C 192.27 264.67 184.39 266.18 177.99 264.01 C 171.59 261.84 165.59 260.29 160.11 257.89 C 154.62 255.50 150.40 249.25 146.25 245.75 C 142.10 242.26 142.00 229.53 135.92 229.08 C 129.84 228.64 120.24 225.46 123.78 218.78 C 127.32 212.10 133.61 211.73 137.70 208.70 C 141.80 205.68 151.09 202.60 155.23 200.23 C 159.37 197.86 162.69 186.99 168.00 188.00 Z"/>
</g>
<g fill="#FDFDFA" fill-opacity="1.00" stroke="None">
<path d="
M 168.00 188.00 
C 162.69 186.99 159.37 197.86 155.23 200.23 C 151.09 202.60 141.80 205.68 137.70 208.70 C 133.61 211.73 127.32 212.10 123.78 218.78 C 120.24 225.46 129.84 228.64 135.92 229.08 C 142.00 229.53 142.10 242.26 146.25 245.75 C 150.40 249.25 154.62 255.50 160.11 257.89 C 165.59 260.29 171.59 261.84 177.99 264.01 C 184.39 266.18 192.27 264.67 198.78 262.78 C 205.29 260.88 211.38 258.81 215.97 254.97 C 220.56 251.13 226.49 248.20 229.02 242.02 C 231.56 235.85 234.36 228.47 242.98 229.98 C 251.59 231.48 252.83 217.02 246.23 214.77 C 239.63 212.52 233.99 206.10 226.00 208.00 C 218.01 209.90 210.08 205.54 203.02 204.98 C 195.96 204.42 188.94 200.45 182.68 199.32 C 176.42 198.19 173.62 189.07 168.00 188.00
M 158.00 229.00 
C 147.01 228.51 151.37 215.49 158.70 213.70 C 166.03 211.90 176.66 214.48 175.06 224.08 C 173.47 233.68 160.96 220.32 158.00 229.00
M 212.00 225.00 
C 206.29 229.70 195.37 228.78 198.98 219.98 C 202.58 211.17 211.04 213.02 218.08 216.92 C 225.12 220.81 217.03 236.09 212.00 225.00
M 175.00 239.00 
C 177.68 239.49 187.73 248.31 191.07 243.07 C 194.42 237.84 205.77 237.74 204.99 244.01 C 204.21 250.28 197.27 252.15 191.93 253.93 C 186.59 255.70 177.63 253.22 172.75 250.25 C 167.88 247.28 165.82 237.31 175.00 239.00 Z"/>
</g>
<g fill="#F9E4D0" fill-opacity="1.00" stroke="None">
<path d="
M 287.00 246.00 
C 287.21 246.10 287.74 245.12 288.00 245.00
C 287.65 244.97 287.26 244.22 287.00 244.00
C 286.48 243.57 284.36 242.12 284.00 242.00
C 274.21 239.45 269.05 248.24 266.92 254.92 C 264.80 261.60 253.65 263.35 247.67 264.67 C 241.69 265.99 227.16 267.34 225.00 261.00
C 235.19 255.14 238.50 243.11 249.90 239.90 C 261.30 236.69 263.98 219.21 258.00 211.00
C 254.57 207.06 249.45 204.53 246.00 201.00
C 250.55 207.21 261.05 213.71 259.00 224.00 C 256.95 234.28 249.58 238.65 240.00 240.00
C 237.39 250.62 226.75 256.50 221.00 265.00
C 236.95 269.63 254.61 266.73 268.00 259.00
C 268.00 248.59 277.19 241.46 287.00 246.00 Z"/>
</g>
<g fill="#FCEEDF" fill-opacity="1.00" stroke="None">
<path d="
M 158.00 229.00 
C 160.96 220.32 173.47 233.68 175.06 224.08 C 176.66 214.48 166.03 211.90 158.70 213.70 C 151.37 215.49 147.01 228.51 158.00 229.00
M 173.00 223.00 
C 173.01 223.50 173.00 224.00 173.00 224.00
C 173.11 232.49 159.85 217.75 159.00 227.00
C 153.08 229.42 150.36 219.51 155.00 218.00
C 155.49 217.93 156.00 218.00 156.00 218.00
C 160.52 212.11 172.84 215.07 173.00 223.00 Z"/>
</g>
<g fill="#FCEADA" fill-opacity="1.00" stroke="None">
<path d="
M 212.00 225.00 
C 217.03 236.09 225.12 220.81 218.08 216.92 C 211.04 213.02 202.58 211.17 198.98 219.98 C 195.37 228.78 206.29 229.70 212.00 225.00
M 216.00 218.00 
C 216.47 218.11 217.00 218.00 217.00 218.00
C 220.06 218.36 221.29 223.55 219.22 226.22 C 217.15 228.89 214.30 227.80 212.25 224.75 C 210.19 221.70 205.81 226.96 204.00 227.00
C 200.41 227.08 199.85 225.32 200.00 222.00
C 200.31 215.00 212.38 212.21 216.00 218.00 Z"/>
</g>
<g fill="#E7C4AC" fill-opacity="1.00" stroke="None">
<path d="
M 156.00 218.00 
C 161.28 216.76 165.69 215.14 171.00 218.00
C 170.86 219.81 171.44 222.08 173.00 223.00
C 172.84 215.07 160.52 212.11 156.00 218.00 Z"/>
</g>
<g fill="#EAC5AD" fill-opacity="1.00" stroke="None">
<path d="
M 200.00 222.00 
C 201.12 214.44 211.46 216.93 216.00 218.00
C 212.38 212.21 200.31 215.00 200.00 222.00 Z"/>
</g>
<g fill="#DD9B7C" fill-opacity="1.00" stroke="None">
<path d="
M 156.00 218.00 
C 156.00 218.00 155.49 217.93 155.00 218.00
C 153.80 221.43 154.81 223.78 158.00 225.00
C 162.91 218.24 169.09 229.74 173.00 224.00
C 173.00 224.00 173.01 223.50 173.00 223.00
C 171.44 222.08 170.86 219.81 171.00 218.00
C 165.69 215.14 161.28 216.76 156.00 218.00 Z"/>
</g>
<g fill="#DB9B7B" fill-opacity="1.00" stroke="None">
<path d="
M 200.00 222.00 
C 199.85 225.32 200.41 227.08 204.00 227.00
C 208.41 226.45 208.62 219.98 214.25 225.75 C 219.87 231.52 217.85 220.26 217.00 218.00
C 217.00 218.00 216.47 218.11 216.00 218.00
C 211.46 216.93 201.12 214.44 200.00 222.00 Z"/>
</g>
<g fill="#D7B59F" fill-opacity="1.00" stroke="None">
<path d="
M 173.00 224.00 
C 169.09 229.74 162.91 218.24 158.00 225.00
C 154.81 223.78 153.80 221.43 155.00 218.00
C 150.36 219.51 153.08 229.42 159.00 227.00
C 159.85 217.75 173.11 232.49 173.00 224.00 Z"/>
</g>
<g fill="#EBC5AF" fill-opacity="1.00" stroke="None">
<path d="
M 204.00 227.00 
C 205.81 226.96 210.19 221.70 212.25 224.75 C 214.30 227.80 217.15 228.89 219.22 226.22 C 221.29 223.55 220.06 218.36 217.00 218.00
C 217.85 220.26 219.87 231.52 214.25 225.75 C 208.62 219.98 208.41 226.45 204.00 227.00 Z"/>
</g>
<g fill="#EAC4AA" fill-opacity="1.00" stroke="None">
<path d="
M 235.00 234.00 
C 240.19 227.68 254.40 234.26 252.00 221.00
C 252.27 233.95 239.32 226.87 235.00 234.00 Z"/>
</g>
<g fill="#FCFDE5" fill-opacity="1.00" stroke="None">
<path d="
M 284.00 242.00 
C 284.36 242.12 286.48 243.57 287.00 244.00
C 286.85 238.14 290.24 224.03 298.67 226.33 C 307.10 228.63 303.95 243.56 302.00 250.00
C 301.70 241.26 312.18 230.74 299.69 225.31 C 287.20 219.88 291.19 239.21 284.00 242.00 Z"/>
</g>
<g fill="#F2F5BD" fill-opacity="1.00" stroke="None">
<path d="
M 287.00 244.00 
C 287.26 244.22 287.65 244.97 288.00 245.00
C 288.50 245.05 289.00 245.00 289.00 245.00
C 289.06 239.72 289.37 226.68 298.00 228.00 C 306.64 229.32 300.74 240.97 300.00 246.00
C 299.81 247.27 300.00 248.72 300.00 250.00
C 300.16 249.77 301.66 249.77 302.00 250.00
C 303.95 243.56 307.10 228.63 298.67 226.33 C 290.24 224.03 286.85 238.14 287.00 244.00 Z"/>
</g>
<g fill="#BFCD4F" fill-opacity="1.00" stroke="None">
<path d="
M 289.00 245.00 
C 292.07 245.57 297.08 248.29 300.00 246.00
C 300.74 240.97 306.64 229.32 298.00 228.00 C 289.37 226.68 289.06 239.72 289.00 245.00 Z"/>
</g>
<g fill="#FCE9D9" fill-opacity="1.00" stroke="None">
<path d="
M 175.00 239.00 
C 165.82 237.31 167.88 247.28 172.75 250.25 C 177.63 253.22 186.59 255.70 191.93 253.93 C 197.27 252.15 204.21 250.28 204.99 244.01 C 205.77 237.74 194.42 237.84 191.07 243.07 C 187.73 248.31 177.68 239.49 175.00 239.00
M 203.00 245.00 
C 202.93 245.49 203.00 246.00 203.00 246.00
C 197.93 253.41 188.28 252.18 181.00 253.00 C 173.72 253.82 164.26 240.55 173.00 240.00
C 173.50 239.97 174.00 240.00 174.00 240.00
C 177.41 242.61 187.36 248.19 191.07 244.07 C 194.79 239.95 207.17 239.64 203.00 245.00 Z"/>
</g>
<g fill="#E7C0A8" fill-opacity="1.00" stroke="None">
<path d="
M 203.00 246.00 
C 197.27 249.29 188.25 252.32 182.00 252.00 C 175.75 251.68 165.80 242.65 173.00 240.00
C 164.26 240.55 173.72 253.82 181.00 253.00 C 188.28 252.18 197.93 253.41 203.00 246.00 Z"/>
</g>
<g fill="#DD9D7C" fill-opacity="1.00" stroke="None">
<path d="
M 203.00 246.00 
C 203.00 246.00 202.93 245.49 203.00 245.00
C 204.06 237.20 193.42 244.85 189.32 246.32 C 185.23 247.79 177.01 244.31 174.00 240.00
C 174.00 240.00 173.50 239.97 173.00 240.00
C 165.80 242.65 175.75 251.68 182.00 252.00 C 188.25 252.32 197.27 249.29 203.00 246.00 Z"/>
</g>
<g fill="#E8BFA7" fill-opacity="1.00" stroke="None">
<path d="
M 203.00 245.00 
C 207.17 239.64 194.79 239.95 191.07 244.07 C 187.36 248.19 177.41 242.61 174.00 240.00
C 177.01 244.31 185.23 247.79 189.32 246.32 C 193.42 244.85 204.06 237.20 203.00 245.00 Z"/>
</g>
<g fill="#FCEAD6" fill-opacity="1.00" stroke="None">
<path d="
M 87.00 243.00 
C 87.00 243.00 87.25 243.73 87.00 244.00
C 95.24 237.35 102.30 250.50 105.00 255.00
C 102.62 249.43 97.04 234.90 87.00 243.00 Z"/>
</g>
<g fill="#E9C0A4" fill-opacity="1.00" stroke="None">
<path d="
M 87.00 244.00 
C 87.25 244.27 87.00 245.00 87.00 245.00
C 102.52 239.21 101.33 263.03 115.00 264.00
C 114.13 263.37 113.30 261.80 112.00 261.00
C 108.79 259.02 107.03 258.38 105.00 255.00
C 102.30 250.50 95.24 237.35 87.00 244.00 Z"/>
</g>
<g fill="#DFAD61" fill-opacity="1.00" stroke="None">
<path d="
M 74.00 248.00 
C 74.88 248.83 73.31 249.71 73.00 250.00
C 74.57 254.51 87.25 250.00 87.00 245.00
C 87.00 245.00 87.25 244.27 87.00 244.00
C 86.53 244.50 84.57 243.59 84.00 244.00
C 83.02 244.70 82.62 248.01 80.00 247.00 C 77.38 246.00 75.84 246.95 74.00 248.00 Z"/>
</g>
<g fill="#DFBE65" fill-opacity="1.00" stroke="None">
<path d="
M 287.00 246.00 
C 286.51 250.69 297.07 250.78 300.00 251.00
C 299.76 250.68 300.00 250.00 300.00 250.00
C 300.00 248.72 299.81 247.27 300.00 246.00
C 297.08 248.29 292.07 245.57 289.00 245.00
C 289.00 245.00 288.50 245.05 288.00 245.00
C 287.74 245.12 287.21 246.10 287.00 246.00 Z"/>
</g>
<g fill="#F9E1CA" fill-opacity="1.00" stroke="None">
<path d="
M 89.00 285.00 
C 89.41 284.78 89.72 283.14 90.00 283.00
C 89.50 283.00 88.50 282.98 88.00 283.00
C 72.36 283.62 62.20 260.29 73.00 250.00
C 73.31 249.71 74.88 248.83 74.00 248.00
C 74.00 248.00 73.16 247.77 73.00 248.00
C 59.06 260.17 71.58 278.92 84.00 286.00
C 85.17 284.42 87.69 285.72 89.00 285.00 Z"/>
</g>
<g fill="#FCBB8D" fill-opacity="1.00" stroke="None">
<path d="
M 103.00 273.00 
C 102.78 273.67 102.03 275.29 102.00 276.00
C 104.95 280.17 107.50 284.04 112.00 287.00
C 115.33 289.19 120.14 297.03 123.00 298.00
C 124.49 298.51 126.51 297.49 128.00 298.00
C 124.64 296.81 120.98 290.92 118.00 288.00
C 128.71 287.64 134.96 294.73 146.67 290.67 C 158.38 286.61 160.93 298.92 155.00 308.00
C 175.46 313.71 196.68 314.51 217.00 308.00
C 219.23 303.36 209.32 291.02 217.03 289.03 C 224.74 287.03 232.77 293.33 240.00 291.00 C 247.23 288.67 253.81 290.16 260.00 286.00
C 264.34 280.92 273.60 271.92 275.00 266.00
C 274.66 260.65 274.95 251.13 282.00 251.00
C 283.07 254.50 277.91 255.48 279.00 259.00
C 285.34 254.63 281.58 245.89 276.31 252.31 C 271.03 258.72 275.98 263.90 271.00 270.00
C 260.84 268.49 250.87 274.83 239.00 275.00 C 227.13 275.17 216.76 267.68 206.03 271.03 C 195.30 274.37 182.87 275.88 171.67 271.33 C 160.47 266.78 149.35 274.10 138.00 274.00 C 126.65 273.90 114.37 273.32 106.00 266.00
C 104.06 267.58 103.76 270.64 103.00 273.00 Z"/>
</g>
<g fill="#ECCDB9" fill-opacity="1.00" stroke="None">
<path d="
M 300.00 251.00 
C 310.91 265.28 299.28 277.65 286.00 282.00
C 285.65 282.12 285.03 282.65 285.00 283.00
C 284.95 283.50 285.00 284.00 285.00 284.00
C 292.17 284.03 297.80 280.57 301.00 275.00
C 304.11 269.59 309.02 254.88 302.00 250.00
C 301.66 249.77 300.16 249.77 300.00 250.00
C 300.00 250.00 299.76 250.68 300.00 251.00 Z"/>
</g>
<g fill="#FCE6C2" fill-opacity="1.00" stroke="None">
<path d="
M 275.00 266.00 
C 275.03 266.50 275.00 267.50 275.00 268.00
C 275.49 268.55 278.74 267.58 279.00 267.00
C 278.78 266.16 279.00 264.87 279.00 264.00
C 279.00 262.37 278.81 260.62 279.00 259.00
C 277.91 255.48 283.07 254.50 282.00 251.00
C 274.95 251.13 274.66 260.65 275.00 266.00 Z"/>
</g>
<g fill="#FBE8C6" fill-opacity="1.00" stroke="None">
<path d="
M 93.00 267.00 
C 94.43 266.51 94.23 267.55 95.00 268.00
C 95.62 268.36 97.69 268.70 98.00 269.00
C 98.00 268.50 98.00 267.50 98.00 267.00
C 98.51 261.27 98.00 252.77 91.00 252.00
C 95.32 255.36 90.67 263.20 93.00 267.00 Z"/>
</g>
<g fill="#FDF1E0" fill-opacity="1.00" stroke="None">
<path d="
M 82.00 255.00 
C 73.60 253.64 73.92 270.48 80.97 270.97 C 88.03 271.46 89.05 256.14 82.00 255.00 Z"/>
</g>
<g fill="#FDF1E0" fill-opacity="1.00" stroke="None">
<path d="
M 296.00 255.00 
C 287.44 250.71 282.21 264.83 289.31 269.69 C 296.40 274.56 301.73 257.87 296.00 255.00 Z"/>
</g>
<g fill="#DCAB60" fill-opacity="1.00" stroke="None">
<path d="
M 279.00 267.00 
C 279.76 269.90 282.84 271.31 283.92 274.08 C 284.99 276.85 281.89 282.67 285.00 283.00
C 285.03 282.65 285.65 282.12 286.00 282.00
C 288.07 272.69 280.36 270.98 279.00 264.00
C 279.00 264.87 278.78 266.16 279.00 267.00 Z"/>
</g>
<g fill="#E8BC70" fill-opacity="1.00" stroke="None">
<path d="
M 260.00 286.00 
C 256.61 289.96 252.18 296.72 247.00 298.00
C 247.47 297.88 248.53 298.12 249.00 298.00
C 254.26 296.63 260.72 289.11 263.75 284.75 C 266.79 280.40 275.00 273.30 275.00 268.00
C 275.00 267.50 275.03 266.50 275.00 266.00
C 273.60 271.92 264.34 280.92 260.00 286.00 Z"/>
</g>
<g fill="#D0AD58" fill-opacity="1.00" stroke="None">
<path d="
M 88.00 283.00 
C 88.50 282.98 89.50 283.00 90.00 283.00
C 90.50 283.00 91.00 283.00 91.00 283.00
C 90.78 280.06 89.98 277.33 90.33 274.33 C 90.68 271.33 95.82 270.97 95.00 268.00
C 94.23 267.55 94.43 266.51 93.00 267.00
C 89.25 268.27 85.48 280.43 88.00 283.00 Z"/>
</g>
<g fill="#D9AD60" fill-opacity="1.00" stroke="None">
<path d="
M 98.00 269.00 
C 98.00 272.25 100.38 273.71 102.00 276.00
C 102.03 275.29 102.78 273.67 103.00 273.00
C 102.62 271.83 98.50 269.65 98.00 267.00
C 98.00 267.50 98.00 268.50 98.00 269.00 Z"/>
</g>
<g fill="#D2BB57" fill-opacity="1.00" stroke="None">
<path d="
M 275.00 268.00 
C 275.00 273.30 266.79 280.40 263.75 284.75 C 260.72 289.11 254.26 296.63 249.00 298.00
C 248.48 298.48 248.34 299.44 248.00 300.00
C 251.51 297.12 256.52 296.21 260.08 293.08 C 263.64 289.95 264.46 284.97 268.92 281.92 C 273.37 278.87 271.57 274.35 277.25 271.25 C 282.92 268.15 281.19 283.58 282.00 284.00
C 282.94 283.86 284.05 284.00 285.00 284.00
C 285.00 284.00 284.95 283.50 285.00 283.00
C 281.89 282.67 284.99 276.85 283.92 274.08 C 282.84 271.31 279.76 269.90 279.00 267.00
C 278.74 267.58 275.49 268.55 275.00 268.00 Z"/>
</g>
<g fill="#AFC049" fill-opacity="1.00" stroke="None">
<path d="
M 91.00 283.00 
C 99.47 290.09 104.51 300.65 114.75 307.25 C 125.00 313.84 135.40 320.28 147.00 324.00
C 171.30 331.79 192.88 330.67 218.00 327.00
C 227.65 325.59 237.80 321.29 246.00 316.00
C 252.25 311.97 259.19 305.25 265.25 301.25 C 271.31 297.26 275.27 284.98 282.00 284.00
C 281.19 283.58 282.92 268.15 277.25 271.25 C 271.57 274.35 273.37 278.87 268.92 281.92 C 264.46 284.97 263.64 289.95 260.08 293.08 C 256.52 296.21 251.51 297.12 248.00 300.00
C 242.35 309.29 230.34 309.68 220.93 314.93 C 211.51 320.17 196.57 320.27 185.00 321.00 C 173.43 321.73 160.64 317.69 150.25 313.75 C 139.87 309.80 131.91 304.30 123.00 298.00
C 118.53 294.84 115.49 290.93 112.00 287.00
C 107.50 284.04 104.95 280.17 102.00 276.00
C 100.38 273.71 98.00 272.25 98.00 269.00
C 97.69 268.70 95.62 268.36 95.00 268.00
C 95.82 270.97 90.68 271.33 90.33 274.33 C 89.98 277.33 90.78 280.06 91.00 283.00 Z"/>
</g>
<g fill="#F2F8CB" fill-opacity="1.00" stroke="None">
<path d="
M 89.00 285.00 
C 90.09 288.25 98.25 291.15 99.75 296.25 C 101.24 301.36 107.76 303.27 111.25 306.75 C 114.73 310.23 119.39 313.42 123.75 316.25 C 128.12 319.07 132.52 322.26 137.78 324.22 C 143.03 326.18 148.26 326.98 153.78 328.22 C 159.29 329.47 164.96 331.67 171.00 332.00
C 162.96 330.85 154.36 327.29 147.00 324.00
C 135.40 320.28 125.00 313.84 114.75 307.25 C 104.51 300.65 99.47 290.09 91.00 283.00
C 91.00 283.00 90.50 283.00 90.00 283.00
C 89.72 283.14 89.41 284.78 89.00 285.00 Z"/>
</g>
<g fill="#EDA177" fill-opacity="1.00" stroke="None">
<path d="
M 217.00 308.00 
C 222.69 306.18 225.91 305.15 223.00 298.00
C 231.00 298.00 239.00 298.00 247.00 298.00
C 252.18 296.72 256.61 289.96 260.00 286.00
C 253.81 290.16 247.23 288.67 240.00 291.00 C 232.77 293.33 224.74 287.03 217.03 289.03 C 209.32 291.02 219.23 303.36 217.00 308.00 Z"/>
</g>
<g fill="#CEAD51" fill-opacity="1.00" stroke="None">
<path d="
M 123.00 298.00 
C 120.14 297.03 115.33 289.19 112.00 287.00
C 115.49 290.93 118.53 294.84 123.00 298.00 Z"/>
</g>
<g fill="#EC9E78" fill-opacity="1.00" stroke="None">
<path d="
M 128.00 298.00 
C 134.94 297.37 142.04 298.47 149.00 298.00
C 148.41 302.35 148.70 309.41 155.00 308.00
C 160.93 298.92 158.38 286.61 146.67 290.67 C 134.96 294.73 128.71 287.64 118.00 288.00
C 120.98 290.92 124.64 296.81 128.00 298.00 Z"/>
</g>
<g fill="#DFE6A9" fill-opacity="1.00" stroke="None">
<path d="
M 248.00 300.00 
C 248.34 299.44 248.48 298.48 249.00 298.00
C 248.53 298.12 247.47 297.88 247.00 298.00
C 246.32 298.18 245.09 298.78 244.00 299.00
C 237.53 302.11 233.40 308.89 225.75 310.20 C 218.11 311.50 210.50 318.63 201.99 317.99 C 193.48 317.35 179.35 319.27 171.33 317.67 C 163.31 316.07 153.92 315.08 147.92 311.08 C 141.93 307.07 131.53 306.22 128.00 299.00
C 127.80 298.60 128.00 298.00 128.00 298.00
C 126.51 297.49 124.49 298.51 123.00 298.00
C 131.91 304.30 139.87 309.80 150.25 313.75 C 160.64 317.69 173.43 321.73 185.00 321.00 C 196.57 320.27 211.51 320.17 220.93 314.93 C 230.34 309.68 242.35 309.29 248.00 300.00 Z"/>
</g>
<g fill="#F6DEC9" fill-opacity="1.00" stroke="None">
<path d="
M 128.00 299.00 
C 136.24 299.75 151.08 295.17 147.00 309.00
C 153.74 309.81 162.67 313.85 172.07 314.93 C 181.48 316.01 198.72 315.55 207.07 313.07 C 215.42 310.60 228.81 310.44 226.00 301.00
C 231.60 298.79 238.39 301.21 244.00 299.00
C 245.09 298.78 246.32 298.18 247.00 298.00
C 239.00 298.00 231.00 298.00 223.00 298.00
C 225.91 305.15 222.69 306.18 217.00 308.00
C 196.68 314.51 175.46 313.71 155.00 308.00
C 148.70 309.41 148.41 302.35 149.00 298.00
C 142.04 298.47 134.94 297.37 128.00 298.00
C 128.00 298.00 127.80 298.60 128.00 299.00 Z"/>
</g>
<g fill="#FDFCE8" fill-opacity="1.00" stroke="None">
<path d="
M 244.00 299.00 
C 238.39 301.21 231.60 298.79 226.00 301.00
C 228.81 310.44 215.42 310.60 207.07 313.07 C 198.72 315.55 181.48 316.01 172.07 314.93 C 162.67 313.85 153.74 309.81 147.00 309.00
C 151.08 295.17 136.24 299.75 128.00 299.00
C 131.53 306.22 141.93 307.07 147.92 311.08 C 153.92 315.08 163.31 316.07 171.33 317.67 C 179.35 319.27 193.48 317.35 201.99 317.99 C 210.50 318.63 218.11 311.50 225.75 310.20 C 233.40 308.89 237.53 302.11 244.00 299.00 Z"/>
</g>
<g fill="#EFF8C9" fill-opacity="1.00" stroke="None">
<path d="
M 218.00 327.00 
C 211.84 328.57 204.37 331.38 198.00 332.00
C 213.83 332.00 234.32 326.18 246.00 316.00
C 237.80 321.29 227.65 325.59 218.00 327.00 Z"/>
</g>
<g fill="#C8D68E" fill-opacity="1.00" stroke="None">
<path d="
M 171.00 332.00 
C 179.94 332.48 189.05 332.00 198.00 332.00
C 204.37 331.38 211.84 328.57 218.00 327.00
C 192.88 330.67 171.30 331.79 147.00 324.00
C 154.36 327.29 162.96 330.85 171.00 332.00 Z"/>
</g>
</svg>